<?xml version="1.0" standalone="no"?>
<!DOCTYPE svg PUBLIC "-//W3C//DTD SVG 1.1//EN" "http://www.w3.org/Graphics/SVG/1.1/DTD/svg11.dtd" >
<svg xmlns="http://www.w3.org/2000/svg">
<metadata></metadata>
<defs>
<font id="impactregular" horiz-adv-x="722" >
<font-face units-per-em="2048" ascent="1638" descent="-410" />
<missing-glyph horiz-adv-x="249" />
<glyph horiz-adv-x="0" />
<glyph horiz-adv-x="682" />
<glyph unicode=" "  horiz-adv-x="249" />
<glyph unicode="&#x09;" horiz-adv-x="249" />
<glyph unicode="&#xa0;" horiz-adv-x="249" />
<glyph unicode="!" horiz-adv-x="381" d="M50 1117h306l-46 -841h-215zM72 0v224h261v-224h-261z" />
<glyph unicode="&#x22;" horiz-adv-x="522" d="M25 946v171h211v-171l-32 -188h-143zM286 946v171h211v-171l-32 -188h-142z" />
<glyph unicode="#" horiz-adv-x="885" d="M25 262v131h144l44 208h-188v131h212l58 264h131l-58 -264h245l56 264h131l-57 -264h117v-131h-142l-43 -208h185v-131h-210l-57 -262h-131l58 262h-248l-54 -262h-132l56 262h-117zM299 393h246l43 208h-245z" />
<glyph unicode="$" horiz-adv-x="773" d="M37 840q0 125 71 196t212 88v89h128v-89q130 -17 194 -87t64 -193q0 -17 -3 -53h-279v47q0 73 -9.5 96t-41.5 23q-25 0 -38 -19.5t-13 -59.5q0 -65 26 -91q26 -27 151 -103q106 -64 144.5 -98t65.5 -96.5t27 -155.5q0 -149 -72 -234t-216 -105v-105h-128v109 q-112 11 -195.5 85.5t-83.5 261.5v54h279v-68q0 -113 8.5 -140t42.5 -27q28 0 41.5 19t13.5 56q0 94 -13 134.5t-89 87.5q-128 80 -174 118t-79.5 106t-33.5 154z" />
<glyph unicode="%" horiz-adv-x="979" d="M25 726v201q0 82 17 122t65 64.5t119 24.5q79 0 128 -27t65.5 -65.5t16.5 -118.5v-192q0 -75 -14 -113t-60.5 -65.5t-123.5 -27.5q-88 0 -134.5 26.5t-62.5 63.5t-16 107zM201 694q0 -48 4.5 -57.5t25.5 -9.5q18 0 23 11t5 51v287q0 44 -4.5 54.5t-24.5 10.5 q-18 0 -23.5 -11.5t-5.5 -53.5v-282zM218 -21l438 1159h105l-437 -1159h-106zM543 186v201q0 82 17 122t65 65t120 25q79 0 128 -27.5t65 -66.5t16 -118v-192q0 -75 -14 -113t-60.5 -66t-123.5 -28q-87 0 -134 27t-63 64.5t-16 106.5zM720 154q0 -48 4.5 -57.5t24.5 -9.5 q19 0 24 10.5t5 52.5v285q0 45 -4.5 55.5t-24.5 10.5q-19 0 -24 -11t-5 -55v-281z" />
<glyph unicode="&#x26;" horiz-adv-x="814" d="M25 252q0 91 38.5 142.5t115.5 84.5q-110 79 -110 214q0 117 78.5 188t216.5 71q125 0 196 -69.5t71 -177.5q0 -113 -87 -201l99 -178l152 98v-188l-79 -50l98 -186h-257l-34 62q-130 -85 -246 -85q-121 0 -186.5 80.5t-65.5 194.5zM286 237q0 -39 16 -58.5t48 -19.5 q34 0 78 29l-91 151q-51 -47 -51 -102zM313 740q0 -64 52 -120q47 62 47 118q0 24 -14 44t-39 20q-22 0 -34 -15.5t-12 -46.5z" />
<glyph unicode="'" horiz-adv-x="261" d="M25 946v171h211v-171l-32 -188h-143z" />
<glyph unicode="(" horiz-adv-x="442" d="M58 273v571q0 141 18 185t76.5 66t177.5 22h87v-145q-57 0 -74 -5t-25 -22.5t-8 -99.5v-572q0 -77 6.5 -96t23.5 -25t77 -6v-146h-87q-122 0 -178.5 22.5t-75 66t-18.5 184.5z" />
<glyph unicode=")" horiz-adv-x="442" d="M25 0v146q61 0 77.5 6t23 25t6.5 96v572q0 82 -8 99.5t-25 22.5t-74 5v145h87q119 0 177.5 -22t76.5 -66t18 -185v-571q0 -141 -18 -184.5t-75 -66t-179 -22.5h-87z" />
<glyph unicode="*" horiz-adv-x="396" d="M21 960l29 81l106 -35v111h87v-111l102 35l31 -81l-102 -43l64 -91l-69 -51l-70 92l-68 -92l-72 51l65 94z" />
<glyph unicode="+" horiz-adv-x="753" d="M44 473v169h248v248h168v-248h249v-169h-249v-247h-168v247h-248z" />
<glyph unicode="," horiz-adv-x="237" d="M25 0v219h187v-100q0 -79 -18.5 -129.5t-64.5 -85.5t-104 -47v80q41 24 47 63h-47z" />
<glyph unicode="-" horiz-adv-x="416" d="M25 362v192h366v-192h-366z" />
<glyph unicode="." horiz-adv-x="260" d="M25 0v228h210v-228h-210z" />
<glyph unicode="/" horiz-adv-x="558" d="M8 -21l334 1159h209l-332 -1159h-211z" />
<glyph unicode="0" horiz-adv-x="757" d="M50 349v390q0 154 26.5 230.5t105.5 122.5t191 46q92 0 164.5 -32t108.5 -78t48.5 -104t12.5 -185v-373q0 -127 -13.5 -184.5t-57 -108t-105 -72.5t-137.5 -22q-100 0 -166.5 23t-105.5 72t-55.5 103t-16.5 172zM328 288q0 -98 9.5 -118t40.5 -20t40.5 23.5t9.5 105.5 v554q0 89 -8.5 111.5t-39.5 22.5q-32 0 -42 -24t-10 -110v-545z" />
<glyph unicode="1" horiz-adv-x="538" d="M8 808v130q202 44 307 179h165v-1117h-279v599q0 130 -6.5 156t-34.5 39.5t-124 13.5h-28z" />
<glyph unicode="2" horiz-adv-x="709" d="M37 0v159q273 446 324.5 552t51.5 165q0 46 -15.5 68.5t-47.5 22.5t-47.5 -25t-15.5 -99v-106h-250v41q0 93 10 147.5t47.5 107t98.5 79t146 26.5q166 0 251.5 -82t85.5 -209q0 -96 -48 -202.5t-283 -454.5h306v-190h-614z" />
<glyph unicode="3" horiz-adv-x="749" d="M41 355v89h279v-182q0 -72 8.5 -92t38.5 -20q33 0 43 25t10 130v77q0 64 -14.5 94t-42.5 39t-110 11v162q100 0 123.5 7.5t33.5 33t10 80.5v62q0 58 -12 77t-37 19q-29 0 -40 -20t-11 -84v-92h-279v96q0 160 73.5 216t232.5 56q199 0 270.5 -78t71.5 -216 q0 -94 -25.5 -136t-90.5 -76q64 -22 95 -70.5t31 -227.5q0 -134 -30.5 -207t-105 -111.5t-190.5 -38.5q-133 0 -208.5 44.5t-99.5 109t-24 223.5z" />
<glyph unicode="4" horiz-adv-x="705" d="M8 197v190l241 730h369v-730h80v-190h-80v-197h-279v197h-331zM217 387h122v475z" />
<glyph unicode="5" horiz-adv-x="758" d="M46 359v61h278v-70q0 -108 7.5 -154t52.5 -46q21 0 34 13.5t14 28.5t2 132v221q0 63 -13 85.5t-44 22.5q-19 0 -32 -11.5t-17 -25t-4 -62.5h-276l12 563h598v-179h-345v-189q64 76 167 76q115 0 174 -64.5t59 -247.5v-160q0 -118 -11.5 -173.5t-49 -103t-104 -72.5 t-162.5 -25q-107 0 -189 37.5t-116.5 112t-34.5 230.5z" />
<glyph unicode="6" horiz-adv-x="765" d="M50 471v154q0 200 5.5 267t48 127t115 90t167.5 30q118 0 193 -38t107.5 -107t32.5 -174h-279q0 78 -1.5 98.5t-16.5 34.5t-40 14q-22 0 -35.5 -13.5t-16 -34t-2.5 -83.5v-178q22 45 63.5 67.5t101.5 22.5q77 0 135.5 -41.5t74.5 -99.5t16 -156v-89q0 -118 -9 -175 t-48 -106t-107 -75.5t-158 -26.5q-113 0 -184.5 31t-110.5 89t-45.5 122.5t-6.5 249.5zM328 270q0 -74 13 -97t43 -23q18 0 37 18t19 95v209q0 59 -13 81t-43 22q-29 0 -42.5 -21t-13.5 -82v-202z" />
<glyph unicode="7" horiz-adv-x="553" d="M8 916v201h533v-243l-178 -874h-277l198 916h-276z" />
<glyph unicode="8" horiz-adv-x="755" d="M46 338q0 102 15.5 176.5t97.5 118.5q-52 25 -78 79.5t-26 137.5q0 144 80 216t240 72q184 0 254.5 -76.5t70.5 -218.5q0 -90 -23.5 -130t-94.5 -80q61 -24 94 -73.5t33 -235.5q0 -135 -26 -199t-102 -105t-204 -41q-124 0 -196.5 39t-103.5 104t-31 216zM324 264 q0 -72 13.5 -93t42.5 -21q30 0 40.5 21.5t10.5 94.5v143q0 64 -13.5 85t-41.5 21t-40 -20t-12 -86v-145zM330 789q0 -51 11 -70t37 -19q28 0 37.5 19t9.5 78v77q0 56 -10 74.5t-38 18.5t-37.5 -20t-9.5 -73v-85z" />
<glyph unicode="9" horiz-adv-x="765" d="M50 297h278q0 -78 2.5 -98.5t17 -34.5t40.5 -14q21 0 35 13.5t15.5 34t1.5 83.5v178q-20 -45 -61.5 -67.5t-103.5 -22.5q-76 0 -135 41.5t-74.5 99.5t-15.5 157v89q0 117 9 174t48 106t107 75.5t159 26.5q111 0 183 -31t111.5 -89t45.5 -122.5t6 -248.5v-155 q0 -199 -5.5 -266.5t-48 -127.5t-115 -90t-167.5 -30q-118 0 -193 38t-107.5 107t-32.5 174zM328 645q0 -70 18.5 -86.5t37.5 -16.5q29 0 42.5 21t13.5 82v202q0 74 -12.5 97t-42.5 23q-18 0 -37.5 -17.5t-19.5 -95.5v-209z" />
<glyph unicode=":" horiz-adv-x="285" d="M50 0v228h210v-228h-210zM50 500v227h210v-227h-210z" />
<glyph unicode=";" horiz-adv-x="285" d="M50 500v227h210v-227h-210zM61 0v219h187v-100q0 -79 -18.5 -129.5t-64.5 -85.5t-104 -47v80q42 24 47 63h-47z" />
<glyph unicode="&#x3c;" horiz-adv-x="753" d="M45 500v140l664 278v-182l-410 -165l410 -165v-182z" />
<glyph unicode="=" horiz-adv-x="753" d="M45 342v169h664v-169h-664zM45 606v168h664v-168h-664z" />
<glyph unicode="&#x3e;" horiz-adv-x="753" d="M45 224v182l410 165l-410 164v183l664 -276v-141z" />
<glyph unicode="?" horiz-adv-x="741" d="M58 757q1 147 24.5 214.5t102 118.5t199.5 51q88 0 153.5 -28t104 -77t56.5 -106.5t18 -179.5v-137q0 -93 -17 -149.5t-75 -99t-136 -42.5q-102 0 -151 79v-120h-260v307h254q1 -64 45 -64q35 0 44 28t9 137v186q0 61 -8.5 82t-34.5 21q-31 0 -40 -27.5t-9 -125.5v-68 h-279zM77 0v224h260v-224h-260z" />
<glyph unicode="@" horiz-adv-x="1095" d="M25 526q0 259 147.5 437t410.5 178q157 0 256 -60.5t166 -168.5t67 -268q0 -211 -118 -333t-237 -122q-89 0 -108 80q-47 -45 -81.5 -63t-81.5 -18q-103 0 -165 80t-62 214q0 173 86.5 307t210.5 134q50 0 90 -24.5t70 -74.5l11 79h136l-87 -547q-3 -18 -3 -24 q0 -27 25 -27q42 0 90.5 39.5t84.5 117.5t36 182q0 176 -105.5 285t-277.5 109q-200 0 -329.5 -138t-129.5 -367q0 -222 126.5 -352t322.5 -130q97 0 184 32.5t165 96.5h145q-90 -114 -223 -173t-270 -59q-235 0 -393.5 159t-158.5 419zM362 443q0 -65 27.5 -110t74.5 -45 q45 0 79 35.5t63 145t29 208.5q0 62 -26.5 100.5t-70.5 38.5q-85 0 -130.5 -118.5t-45.5 -254.5z" />
<glyph unicode="A" horiz-adv-x="717" d="M-8 0l147 1117h421l166 -1117h-298l-14 201h-104l-17 -201h-301zM306 399h100q-22 190 -44 468q-45 -320 -56 -468z" />
<glyph unicode="B" horiz-adv-x="780" d="M58 0v1117h290q137 0 208 -21.5t114 -86.5t43 -210q0 -98 -30.5 -136.5t-120.5 -59.5q100 -23 136 -75.5t36 -161.5v-104q0 -113 -26 -167.5t-82.5 -74.5t-231.5 -20h-336zM348 191q62 2 79 19.5t17 84.5v105q0 71 -15.5 86.5t-80.5 17.5v-313zM348 678h29q43 0 55 21 t12 121q0 52 -10 73t-25.5 26.5t-60.5 6.5v-248z" />
<glyph unicode="C" horiz-adv-x="782" d="M50 397v326q0 121 8 181.5t49 116t114 88t167 32.5q129 0 212.5 -50t109.5 -124t26 -231v-106h-290v195q0 84 -9.5 105.5t-41.5 21.5q-36 0 -45.5 -26t-9.5 -110v-519q0 -82 9.5 -106.5t43.5 -24.5q33 0 43 24.5t10 116.5v140h290v-43q0 -174 -24.5 -246t-108 -126.5 t-206.5 -54.5q-128 0 -210.5 46t-109.5 128t-27 246z" />
<glyph unicode="D" horiz-adv-x="781" d="M58 0v1117h217q211 0 285 -19.5t112.5 -63.5t48.5 -98t10 -213v-391q0 -151 -14.5 -201.5t-49.5 -79t-86.5 -40t-156.5 -11.5h-366zM348 191q63 0 77.5 25.5t14.5 136.5v434q0 76 -4.5 97.5t-22 31.5t-65.5 10v-735z" />
<glyph unicode="E" horiz-adv-x="587" d="M58 0v1117h484v-223h-194v-212h182v-213h-182v-245h214v-224h-504z" />
<glyph unicode="F" horiz-adv-x="562" d="M58 0v1117h492v-223h-202v-212h180v-213h-180v-469h-290z" />
<glyph unicode="G" horiz-adv-x="779" d="M50 383v332q0 160 17 232.5t99 133t211 60.5q128 0 212 -52.5t109.5 -125t25.5 -209.5v-48h-290v101q0 96 -8.5 120.5t-39.5 24.5q-27 0 -36.5 -21t-9.5 -106v-537q0 -75 9.5 -98.5t38.5 -23.5q32 0 43.5 26.5t11.5 104.5v133h-59v170h340v-600h-182l-27 80 q-30 -52 -75 -77.5t-107 -25.5q-73 0 -137 35.5t-97 87.5t-41 110t-8 173z" />
<glyph unicode="H" horiz-adv-x="784" d="M58 0v1117h290v-399h87v399h291v-1117h-291v469h-87v-469h-290z" />
<glyph unicode="I" horiz-adv-x="407" d="M58 0v1117h290v-1117h-290z" />
<glyph unicode="J" horiz-adv-x="467" d="M12 0v195q27 -2 38 -2q31 0 49 15.5t21 37.5t3 85v786h290v-746q0 -168 -3.5 -216t-31 -86.5t-75.5 -53.5t-145 -15h-146z" />
<glyph unicode="K" horiz-adv-x="758" d="M58 0v1117h290v-434l129 434h273l-166 -504l182 -613h-300l-118 479v-479h-290z" />
<glyph unicode="L" horiz-adv-x="537" d="M58 0v1117h290v-893h177v-224h-467z" />
<glyph unicode="M" horiz-adv-x="1012" d="M58 0v1117h376q17 -101 35 -237l40 -285l66 522h379v-1117h-254v754l-101 -754h-180l-107 737v-737h-254z" />
<glyph unicode="N" horiz-adv-x="765" d="M58 0v1117h243l163 -503v503h243v-1117h-255l-151 508v-508h-243z" />
<glyph unicode="O" horiz-adv-x="772" d="M50 463v191q0 168 8 238.5t49.5 128t112.5 89t166 31.5q89 0 160.5 -29.5t115 -88t52 -127.5t8.5 -242v-191q0 -168 -8 -238t-50 -128t-113 -89t-165 -31q-90 0 -161.5 29t-115 87.5t-51.5 127.5t-8 242zM340 308q0 -97 8 -119.5t37 -22.5q30 0 38 26t8 125v513 q0 78 -8.5 100t-35.5 22q-23 0 -35 -18t-12 -104v-522z" />
<glyph unicode="P" horiz-adv-x="709" d="M58 0v1117h293q118 0 182 -18.5t96 -54t43.5 -85.5t11.5 -154v-98q0 -107 -22 -156t-81 -75t-155 -26h-78v-450h-290zM348 642q13 -1 22 -1q40 0 55.5 19.5t15.5 81.5v92q0 57 -18 74.5t-75 17.5v-284z" />
<glyph unicode="Q" horiz-adv-x="772" d="M50 402v346q0 114 13.5 173.5t55.5 112.5t108 80t147 27q97 0 173.5 -33.5t114 -84.5t49 -106t11.5 -163v-363q0 -149 -14.5 -202t-55.5 -84.5t-110 -47.5q2 -38 15.5 -47.5t64.5 -9.5h100v-135h-219q-79 0 -111.5 12t-44 36t-11.5 87q-99 3 -170 52t-93.5 124.5 t-22.5 225.5zM340 308q0 -97 8 -119.5t37 -22.5q30 0 38 26t8 125v513q0 78 -8.5 100t-35.5 22q-23 0 -35 -18t-12 -104v-522z" />
<glyph unicode="R" horiz-adv-x="761" d="M58 0v1117h206q205 0 278 -16t119 -81t46 -208q0 -130 -32.5 -175t-128.5 -54q87 -21 116.5 -57t37 -66t7.5 -165v-295h-270v371q0 90 -14.5 111.5t-74.5 21.5v-504h-290zM348 678q49 0 69 13t20 87v62q0 53 -19 69.5t-70 16.5v-248z" />
<glyph unicode="S" horiz-adv-x="730" d="M34 827q0 128 32.5 187.5t106 93t176.5 33.5q113 0 193 -37t105.5 -92.5t25.5 -188.5v-44h-269v83q0 58 -10.5 74t-34.5 16q-26 0 -39.5 -21.5t-13.5 -65.5q0 -56 15 -84q14 -28 82 -68q194 -115 244 -189q51 -74 51 -238q0 -120 -28 -176.5t-108 -94.5t-187 -38 q-116 0 -198.5 44t-108 112t-25.5 194v73h270v-136q0 -63 11 -80.5t40 -17.5t43.5 22.5t14.5 67.5q0 99 -27 129q-28 30 -136 101q-109 72 -144 104.5t-58 90t-23 146.5z" />
<glyph unicode="T" horiz-adv-x="651" d="M8 894v223h635v-223h-172v-894h-291v894h-172z" />
<glyph unicode="U" horiz-adv-x="772" d="M54 456v661h290v-838q0 -73 8 -93t32 -20q28 0 36 22t8 106v823h290v-746q0 -127 -8 -178.5t-49 -106t-107.5 -82t-156.5 -27.5q-100 0 -176.5 33t-114.5 86t-45 112t-7 248z" />
<glyph unicode="V" horiz-adv-x="739" d="M-8 1117h306q53 -461 76 -780q23 322 48 572l20 208h306l-148 -1117h-441z" />
<glyph unicode="W" horiz-adv-x="1150" d="M0 1117h282l30 -390l30 -376q16 292 80 766h302q7 -49 32 -368l32 -425q24 405 81 793h282l-129 -1117h-363q-50 257 -88 585q-17 -140 -80 -585h-361z" />
<glyph unicode="X" horiz-adv-x="681" d="M0 0l105 623l-105 494h281q7 -46 30 -154q18 -82 30 -150l62 304h244l-102 -494l153 -623h-269q-48 167 -88 406q-11 -105 -31 -224l-27 -182h-283z" />
<glyph unicode="Y" horiz-adv-x="668" d="M-8 1117h267q63 -326 70 -439q24 178 81 439h267l-212 -713v-404h-269v404z" />
<glyph unicode="Z" horiz-adv-x="560" d="M8 0v162l224 732h-198v223h510v-223l-217 -670h217v-224h-536z" />
<glyph unicode="[" horiz-adv-x="398" d="M58 0v1117h315v-172h-63v-773h63v-172h-315z" />
<glyph unicode="\" horiz-adv-x="558" d="M8 1138h209l334 -1159h-211z" />
<glyph unicode="]" horiz-adv-x="398" d="M25 0v172h63v773h-63v172h315v-1117h-315z" />
<glyph unicode="^" horiz-adv-x="683" d="M8 566l260 551h154l252 -551h-196l-136 337l-136 -337h-198z" />
<glyph unicode="_" horiz-adv-x="780" d="M-8 -106h797v-71h-797v71z" />
<glyph unicode="`" horiz-adv-x="471" d="M0 1223h246l121 -187h-140z" />
<glyph unicode="a" horiz-adv-x="712" d="M37 204v75q0 103 32.5 140.5t160.5 86.5q138 54 147.5 73t9.5 76q0 72 -10.5 93.5t-35.5 21.5q-28 0 -35 -18.5t-7 -94.5v-96h-262v61q0 107 24.5 164.5t98.5 101.5t192 44q141 0 213 -50t86.5 -122.5t14.5 -299.5v-460h-271v81q-26 -49 -66.5 -73.5t-95.5 -24.5 q-74 0 -135 41.5t-61 179.5zM299 258q0 -71 9 -91.5t37 -20.5q26 0 34 16t8 85v188q-67 -49 -77.5 -82t-10.5 -95z" />
<glyph unicode="b" horiz-adv-x="734" d="M50 0v1117h278v-264q35 40 77.5 59.5t91.5 19.5q58 0 100 -18t64 -50.5t26.5 -63.5t4.5 -132v-413q0 -100 -13.5 -149.5t-63 -86t-118.5 -36.5q-49 0 -91 21.5t-78 64.5l-18 -69h-260zM328 261q0 -74 9 -94.5t34 -20.5q26 0 34 21t8 103v386q0 71 -9 92.5t-35 21.5 q-25 0 -33 -19t-8 -95v-395z" />
<glyph unicode="c" horiz-adv-x="698" d="M41 344v260q0 116 23.5 175.5t100.5 106t186 46.5t186.5 -46t103 -116.5t25.5 -199.5h-263v106q0 55 -9 74.5t-33 19.5t-32.5 -17t-8.5 -77v-432q0 -49 12.5 -73.5t36.5 -24.5q28 0 38 25.5t10 96.5v109h249q-1 -110 -8 -165t-46 -112.5t-102 -87t-155 -29.5 q-118 0 -187 40.5t-98 113.5t-29 207z" />
<glyph unicode="d" horiz-adv-x="734" d="M41 243v428q0 106 13.5 150t62 77.5t115.5 33.5q52 0 95 -18.5t78 -55.5v259h279v-1117h-279v66q-40 -41 -84 -62t-93 -21q-64 0 -112 34.5t-61.5 79t-13.5 146.5zM320 237q0 -56 8.5 -73.5t31.5 -17.5q27 0 36 19.5t9 96.5v423q0 51 -8.5 68t-34.5 17q-25 0 -33.5 -15.5 t-8.5 -69.5v-448z" />
<glyph unicode="e" d="M41 333v267q0 120 32.5 189t106.5 106t170 37q117 0 193.5 -44.5t107 -118t30.5 -206.5v-121h-361v-198q0 -63 9 -80.5t35 -17.5q31 0 42 23.5t11 92.5v120h264v-67q0 -85 -10.5 -130.5t-50 -97.5t-100 -78t-151.5 -26q-88 0 -155.5 25.5t-105.5 70.5t-52.5 98t-14.5 156 zM320 591h82v67q0 71 -8 91.5t-31 20.5q-29 0 -36 -17.5t-7 -94.5v-67z" />
<glyph unicode="f" horiz-adv-x="408" d="M3 749v145h57q0 90 6 120.5t30.5 54t69 36t137.5 12.5h102v-141q-86 0 -101.5 -8t-15.5 -45v-29h117v-145h-66v-749h-279v749h-57z" />
<glyph unicode="g" horiz-adv-x="732" d="M41 65h271q0 -61 44 -61q32 0 42 18.5t10 78.5v69q-35 -33 -75 -49.5t-83 -16.5q-75 0 -124 30.5t-67 80t-18 140.5v332q0 131 47 188t143 57q53 0 96 -21.5t77 -63.5l20 69h259v-706q0 -142 -6.5 -184t-46.5 -88.5t-111.5 -71t-179.5 -24.5q-133 0 -214 45t-84 178z M320 365q0 -61 7.5 -79.5t31.5 -18.5q28 0 36.5 22t8.5 100v284q0 63 -7.5 80t-32.5 17q-24 0 -34 -19.5t-10 -77.5v-308z" />
<glyph unicode="h" horiz-adv-x="740" d="M50 0v1117h278v-251q36 33 78 49.5t89 16.5q74 0 125 -37t62.5 -86t11.5 -178v-631h-279v644q0 80 -7.5 103t-35.5 23q-26 0 -35 -23.5t-9 -93.5v-653h-278z" />
<glyph unicode="i" horiz-adv-x="387" d="M50 0v916h287v-916h-287zM50 972v145h287v-145h-287z" />
<glyph unicode="j" horiz-adv-x="395" d="M-4 18q50 0 56 11t6 138v749h287v-725q0 -128 -5 -173t-31.5 -79t-71 -50.5t-133.5 -16.5h-108v146zM58 972v145h287v-145h-287z" />
<glyph unicode="k" horiz-adv-x="675" d="M50 0v1117h278v-469l87 268h235l-113 -365l147 -551h-269l-87 399v-399h-278z" />
<glyph unicode="l" horiz-adv-x="387" d="M50 0v1117h287v-1117h-287z" />
<glyph unicode="m" horiz-adv-x="1089" d="M50 0v916h275l-5 -87q33 51 77.5 77t102.5 26q111 0 176 -103q35 51 79 77t98 26q71 0 117.5 -34.5t59.5 -84.5t13 -162v-651h-270v597q0 117 -8 145t-37 28q-30 0 -38.5 -27.5t-8.5 -145.5v-597h-270v582q0 134 -7 161t-36 27q-19 0 -32 -14t-14.5 -34.5t-1.5 -86.5 v-635h-270z" />
<glyph unicode="n" horiz-adv-x="738" d="M50 0v916h283l-5 -85q31 51 74.5 76t101.5 25q71 0 117 -33.5t59 -85t13 -171.5v-642h-279v634q0 95 -6 115.5t-35 20.5t-37 -24t-8 -127v-619h-278z" />
<glyph unicode="o" d="M41 339v235q0 128 28 199.5t99.5 115t183.5 43.5q94 0 161 -28t103.5 -72.5t50 -92.5t13.5 -145v-224q0 -124 -12 -181.5t-53 -107.5t-105 -74t-146 -24q-93 0 -157 20.5t-99.5 61.5t-51 99.5t-15.5 174.5zM320 250q0 -65 8.5 -84.5t32.5 -19.5q25 0 33 17.5t8 77.5v422 q0 70 -8 88.5t-32 18.5q-25 0 -33.5 -18.5t-8.5 -88.5v-413z" />
<glyph unicode="p" horiz-adv-x="733" d="M50 -130v1046h283l-5 -81q38 49 82.5 73t98.5 24q64 0 111.5 -35t59 -80.5t11.5 -154.5v-385q0 -125 -14.5 -178t-60.5 -84.5t-111 -31.5q-52 0 -96 24.5t-81 71.5v-209h-278zM328 270q0 -83 8.5 -103.5t36.5 -20.5q27 0 33.5 19t6.5 92v392q0 85 -6.5 103t-34.5 18 t-36 -20.5t-8 -100.5v-379z" />
<glyph unicode="q" horiz-adv-x="732" d="M41 275v404q0 93 12.5 139t60 80t112.5 34q52 0 96 -23.5t81 -70.5l5 78h274v-1046h-279v204q-41 -60 -75 -75.5t-84 -15.5q-74 0 -121.5 34.5t-64.5 89.5t-17 168zM320 259q0 -74 8.5 -93.5t33.5 -19.5q24 0 32.5 20t8.5 89v412q0 60 -9.5 81.5t-33.5 21.5 q-23 0 -31.5 -18.5t-8.5 -84.5v-408z" />
<glyph unicode="r" horiz-adv-x="505" d="M50 0v916h278l-11 -120q61 129 176 136v-322q-76 0 -112 -20.5t-44.5 -57.5t-8.5 -170v-362h-278z" />
<glyph unicode="s" horiz-adv-x="665" d="M29 662q0 109 29 161.5t98.5 80.5t160.5 28t155 -23t98 -61t41.5 -70.5t7.5 -101.5v-53h-247v50q0 63 -7.5 80t-36.5 17q-23 0 -34.5 -15.5t-11.5 -46.5q0 -42 5.5 -61.5t35 -43t120.5 -68.5q121 -60 159 -112t38 -153q0 -111 -29 -168t-97 -88t-163 -31 q-107 0 -182.5 33.5t-103.5 90t-28 170.5v45h247v-58q0 -74 9 -96t37 -22q29 0 41 14.5t12 62.5q0 65 -15 82q-16 17 -162 98q-123 69 -150 125t-27 134z" />
<glyph unicode="t" horiz-adv-x="430" d="M4 749v145h60v144h280v-144h75v-145h-75v-490q0 -91 9 -101t78 -10v-148h-113q-95 0 -136 8t-72 36.5t-38.5 65.5t-7.5 174v465h-60z" />
<glyph unicode="u" horiz-adv-x="738" d="M46 298v618h278v-623q0 -107 6.5 -127t35.5 -20q31 0 37 20.5t6 132.5v617h279v-916h-284l5 76q-29 -46 -71.5 -69.5t-97.5 -23.5q-63 0 -104 22.5t-61 59t-24.5 76t-4.5 157.5z" />
<glyph unicode="v" horiz-adv-x="617" d="M-8 916h249l78 -668q9 73 30 359q13 159 28 309h249l-131 -916h-363z" />
<glyph unicode="w" horiz-adv-x="945" d="M-4 916h240q3 -36 61 -524q4 50 62 524h231l57 -524q13 229 63 524h240l-111 -916h-303q-25 168 -57 442q-11 -120 -31 -243l-31 -199h-303z" />
<glyph unicode="x" horiz-adv-x="612" d="M0 0l120 478l-120 438h233q56 -281 60 -318q40 233 61 318h248l-111 -438l134 -478h-271q-40 181 -61 311q-27 -163 -60 -311h-233z" />
<glyph unicode="y" horiz-adv-x="633" d="M-8 916h253l91 -618l44 618h253l-80 -663q-18 -157 -31 -214.5t-42.5 -94.5t-82.5 -54.5t-169 -17.5h-169v146q65 0 83.5 6.5t18.5 29.5q0 11 -17 96z" />
<glyph unicode="z" horiz-adv-x="496" d="M8 0v192l211 540h-189v184h454v-203l-206 -529h206v-184h-476z" />
<glyph unicode="{" horiz-adv-x="522" d="M25 371v166q75 1 113 44.5t38 196.5q0 117 8.5 173t41.5 94t85.5 55t148.5 17h37v-165q-100 0 -120 -20.5t-21 -80.5q-4 -166 -10.5 -215.5t-30.5 -95t-89 -86.5q62 -37 90 -89t32 -149l11 -201q6 -29 29.5 -43.5t107.5 -14.5v-166h-36q-110 0 -170 25t-87 82.5 t-27 184.5q0 141 -9.5 180.5t-37.5 72t-104 35.5z" />
<glyph unicode="|" horiz-adv-x="382" d="M117 -183v1300h149v-1300h-149z" />
<glyph unicode="}" horiz-adv-x="522" d="M25 952v165h36q111 0 171 -25t87 -82.5t27 -184.5q0 -147 10.5 -185t38 -69t102.5 -34v-166q-75 0 -113 -44.5t-38 -196.5q0 -117 -8.5 -173t-41.5 -94t-85.5 -55t-148.5 -17h-36v166q95 0 117 20t23 81q4 177 13 227t34.5 93.5t81.5 75.5q-59 39 -82.5 76t-32 81 t-12.5 163t-9.5 136t-26.5 29.5t-107 12.5z" />
<glyph unicode="~" horiz-adv-x="741" d="M39 430v191q102 88 200 88q58 0 160 -48q82 -39 116 -39q32 0 68 18t119 93v-190q-109 -90 -196 -90q-59 0 -176 56q-67 33 -98 33q-75 0 -193 -112z" />
<glyph unicode="&#xa1;" horiz-adv-x="381" d="M25 -135l45 842h216l45 -842h-306zM48 759v224h260v-224h-260z" />
<glyph unicode="&#xa2;" horiz-adv-x="730" d="M41 406v206q0 139 18 207t82.5 123.5t164.5 75.5v94h128v-94q68 -13 123.5 -47t87 -81t40 -94t8.5 -160h-279v93q0 80 -8.5 101t-38.5 21q-28 0 -37.5 -17.5t-9.5 -94.5v-429q0 -75 9 -96t37 -21q34 0 47 28.5t13 119.5v101h267v-46q0 -165 -61.5 -252.5t-197.5 -117.5 v-114h-128v114q-91 13 -161 68.5t-87 115.5t-17 196z" />
<glyph unicode="&#xa3;" horiz-adv-x="756" d="M50 -21v162q29 20 48 51t35 101t16 122q0 11 -1 30h-98v190h68q-58 111 -58 212q0 144 89 217.5t226 73.5q147 0 234 -77.5t87 -211.5q0 -37 -7 -91h-249v101q0 68 -2.5 86t-17 32.5t-35.5 14.5q-28 0 -45.5 -23.5t-17.5 -53.5q0 -38 30 -143q32 -114 33 -137h176v-190 h-159q-2 -188 -134 -282q12 1 31 4q20 3 37 3q23 0 64 -6q15 -3 28 -3q27 0 45 17q16 17 16 91v44h234l-1 -89q0 -100 -14.5 -143.5t-64.5 -72.5t-127 -29q-48 0 -141 23q-91 24 -156 24q-104 0 -169 -47z" />
<glyph unicode="&#xa4;" horiz-adv-x="774" d="M25 197l91 90q-51 82 -51 175q0 87 51 172l-91 92l96 98l92 -92q43 26 86 38.5t87 12.5q45 0 88.5 -12.5t87.5 -38.5l91 92l96 -98l-90 -92q50 -83 50 -172q0 -93 -50 -175l90 -90l-96 -97l-91 89q-41 -25 -85 -38t-91 -13q-45 0 -88 13t-85 38l-89 -89zM202 465 q0 -82 55.5 -135.5t129.5 -53.5q77 0 131 54t54 130q0 77 -54 131t-131 54q-79 0 -132 -56t-53 -124z" />
<glyph unicode="&#xa5;" horiz-adv-x="668" d="M-8 1117h267q63 -326 70 -439q24 178 81 439h267l-131 -439h121v-119h-156l-46 -155h202v-118h-202v-286h-269v286h-195v118h195l-44 155h-151v119h116z" />
<glyph unicode="&#xa6;" horiz-adv-x="382" d="M117 -183v563h149v-563h-149zM117 555v562h149v-562h-149z" />
<glyph unicode="&#xa7;" horiz-adv-x="683" d="M25 479q0 114 149 199q-58 53 -87.5 108t-29.5 113q0 90 71 166t211 76q112 0 189 -58t77 -205h-220v18q0 34 -14 51.5t-43 17.5q-21 0 -31.5 -10t-10.5 -31t22 -46q20 -25 111 -91q162 -117 201 -170t39 -114q0 -127 -150 -197q60 -61 89.5 -116.5t29.5 -106.5 q0 -92 -76.5 -166.5t-211.5 -74.5q-115 0 -187.5 62.5t-74.5 196.5h221q0 -89 54 -89q22 0 33 11t11 34q0 25 -22 49q-21 24 -74 62q-157 113 -216.5 175.5t-59.5 135.5zM239 548q0 -20 17.5 -38.5t89.5 -69.5q49 -36 74 -55q24 22 24 52q0 20 -23.5 43.5t-96.5 75.5 q-31 22 -60 44q-25 -25 -25 -52z" />
<glyph unicode="&#xa8;" horiz-adv-x="471" d="M-5 1036v179h180v-179h-180zM297 1036v179h180v-179h-180z" />
<glyph unicode="&#xa9;" horiz-adv-x="1107" d="M25 529q0 150 78 276.5t201 189t236 62.5q240 0 391 -158.5t151 -369.5q0 -219 -155.5 -374t-373.5 -155q-219 0 -373.5 155t-154.5 374zM129 529q0 -175 124.5 -300t299.5 -125q176 0 300.5 125t124.5 300q0 182 -129 303t-285 121q-190 0 -312.5 -126.5t-122.5 -297.5z M294 526q0 137 73 216t189 79q177 0 237 -168l-112 -26q-36 96 -123 96q-69 0 -106 -52t-37 -138q0 -96 35.5 -148.5t100.5 -52.5q93 0 131 119l111 -38q-56 -180 -234 -180q-121 0 -193 80t-72 213z" />
<glyph unicode="&#xaa;" horiz-adv-x="458" d="M25 699v45q0 66 23 89t126 60q72 26 75.5 38t3.5 30q0 45 -7 56.5t-25 11.5t-22 -9t-4 -54v-26h-170q0 68 15 103.5t62.5 64t125.5 28.5q91 0 137 -29t57 -73.5t11 -186.5v-272h-176v48q-17 -30 -43 -45.5t-62 -15.5q-63 0 -95 34.5t-32 102.5zM195 733q0 -37 5.5 -48 t24.5 -11q18 0 23 9t5 48v103q-39 -28 -48.5 -42t-9.5 -59z" />
<glyph unicode="&#xab;" horiz-adv-x="524" d="M25 480l58 374h163l-58 -374l58 -394h-163zM277 480l59 374h164l-59 -374l59 -394h-164z" />
<glyph unicode="&#xac;" horiz-adv-x="753" d="M44 608v169h665v-438h-168v269h-497z" />
<glyph unicode="&#xad;" horiz-adv-x="416" d="M25 362v192h366v-192h-366z" />
<glyph unicode="&#xae;" horiz-adv-x="1107" d="M25 529q0 153 81.5 282t204.5 187.5t229 58.5q236 0 389 -157.5t153 -370.5q0 -219 -155.5 -374t-373.5 -155q-219 0 -373.5 155t-154.5 374zM130 529q0 -176 125 -300.5t300 -124.5q174 0 299 124.5t125 300.5q0 120 -62.5 222t-161.5 152.5t-189 50.5 q-195 0 -315.5 -128t-120.5 -297zM321 246v561h265q99 0 144 -45.5t45 -112.5q0 -65 -37.5 -104.5t-113.5 -53.5q34 -13 54.5 -35.5t64.5 -96.5l66 -113h-140l-47 91q-42 80 -74.5 109.5t-83.5 29.5h-30v-230h-113zM434 565h92q70 0 99.5 18.5t29.5 59.5q0 37 -29 56t-88 19 h-104v-153z" />
<glyph unicode="&#xaf;" horiz-adv-x="780" d="M-8 1166v70h797v-70h-797z" />
<glyph unicode="&#xb0;" horiz-adv-x="490" d="M25 907q0 98 65.5 161.5t154.5 63.5q92 0 156 -64.5t64 -155.5t-64.5 -155.5t-154.5 -64.5q-98 0 -159.5 67.5t-61.5 147.5zM139 915q0 -47 31.5 -77.5t74.5 -30.5t74.5 31t31.5 74q0 44 -31.5 75t-74.5 31q-46 0 -76 -32.5t-30 -70.5z" />
<glyph unicode="&#xb1;" horiz-adv-x="753" d="M44 124v168h665v-168h-665zM44 620v168h248v248h168v-248h249v-168h-249v-245h-168v245h-248z" />
<glyph unicode="&#xb2;" horiz-adv-x="449" d="M25 540v89q172 237 202 288.5t30 81.5q0 42 -36 42q-20 0 -29 -11.5t-9 -48.5v-59h-158v25q0 61 13 98.5t57 65t118 27.5q104 0 157.5 -43t53.5 -112q0 -51 -29.5 -105.5t-122.5 -169.5l-48 -61h184v-107h-383z" />
<glyph unicode="&#xb3;" horiz-adv-x="460" d="M25 729v39h176v-88q0 -36 4.5 -44.5t22.5 -8.5q20 0 26 11.5t6 64.5v37q0 47 -18.5 58.5t-85.5 12.5v92q74 0 89 9t15 50v33q0 30 -7.5 38t-22.5 8q-17 0 -23 -8.5t-6 -41.5v-41h-176v43q0 86 45 115.5t146 29.5q122 0 167.5 -40.5t45.5 -117.5q0 -32 -11 -61.5 t-51 -47.5q31 -9 50 -36t19 -117q0 -117 -57 -153t-147 -36q-84 0 -131 24t-61.5 59t-14.5 117z" />
<glyph unicode="&#xb4;" horiz-adv-x="471" d="M104 1036l122 187h245l-227 -187h-140z" />
<glyph unicode="&#xb5;" horiz-adv-x="665" d="M50 -281v1197h223v-661q0 -97 54 -97q67 0 67 160v598h221v-916h-211v85q-42 -98 -131 -99v-267h-223z" />
<glyph unicode="&#xb6;" horiz-adv-x="814" d="M25 828q0 81 31 142.5t84 96t101.5 42.5t151.5 8h412v-180h-78v-1089h-163v1089h-100v-1089h-167v702q-272 30 -272 278z" />
<glyph unicode="&#xb7;" horiz-adv-x="471" d="M135 482q0 42 29.5 71t70.5 29t71.5 -29t30.5 -71t-30 -72t-72 -30q-41 0 -70.5 30t-29.5 72z" />
<glyph unicode="&#xb8;" horiz-adv-x="471" d="M78 -189h102q10 -28 35 -28q20 0 30 10t10 31q0 23 -14 34.5t-43 11.5q-6 0 -18 -1v139h81v-85q36 0 67.5 -24.5t31.5 -66.5q0 -53 -42.5 -91.5t-102.5 -38.5q-107 0 -137 109z" />
<glyph unicode="&#xb9;" horiz-adv-x="345" d="M8 960v76q127 22 192 93h104v-589h-176v316q0 67 -3.5 79t-21 18.5t-75.5 6.5h-20z" />
<glyph unicode="&#xba;" horiz-adv-x="465" d="M25 780v136q0 127 55.5 173.5t145.5 46.5q79 0 128 -27.5t67.5 -69t18.5 -111.5v-130q0 -86 -15 -131.5t-63.5 -75t-129.5 -29.5q-86 0 -129.5 24.5t-60.5 68t-17 125.5zM206 726q0 -38 5 -48t19 -10q20 0 24.5 9.5t4.5 42.5v249q0 42 -4.5 51t-21.5 9q-18 0 -22.5 -9.5 t-4.5 -50.5v-243z" />
<glyph unicode="&#xbb;" horiz-adv-x="524" d="M25 86l58 394l-58 374h163l58 -374l-58 -394h-163zM277 86l59 394l-59 374h164l59 -374l-59 -394h-164z" />
<glyph unicode="&#xbc;" horiz-adv-x="881" d="M8 960v76q127 22 192 93h104v-589h-176v316q0 67 -3.5 79t-21 18.5t-75.5 6.5h-20zM148 -21l438 1159h105l-437 -1159h-106zM434 102v104l150 383h232v-379h49v-108h-49v-102h-177v102h-205zM552 210h87v231z" />
<glyph unicode="&#xbd;" horiz-adv-x="911" d="M8 960v76q127 22 192 93h104v-589h-176v316q0 67 -3.5 79t-21 18.5t-75.5 6.5h-20zM148 -21l438 1159h105l-437 -1159h-106zM487 0v88q173 238 203 289.5t30 82.5q0 41 -38 41q-19 0 -28 -11.5t-9 -48.5v-59h-158v25q0 61 13 99t57.5 65.5t118.5 27.5q103 0 156.5 -44 t53.5 -112q0 -50 -30 -105.5t-122 -169.5l-47 -61h184v-107h-384z" />
<glyph unicode="&#xbe;" horiz-adv-x="977" d="M25 729v39h176v-88q0 -36 4.5 -44.5t22.5 -8.5q20 0 26 11.5t6 64.5v37q0 47 -18.5 58.5t-85.5 12.5v92q74 0 89 9t15 50v33q0 30 -7.5 38t-22.5 8q-17 0 -23 -8.5t-6 -41.5v-41h-176v43q0 86 45 115.5t146 29.5q122 0 167.5 -40.5t45.5 -117.5q0 -32 -11 -61.5 t-51 -47.5q31 -9 50 -36t19 -117q0 -117 -57 -153t-147 -36q-84 0 -131 24t-61.5 59t-14.5 117zM244 -21l437 1159h105l-436 -1159h-106zM529 102v104l151 383h231v-379h49v-108h-49v-102h-176v102h-206zM647 210h88v231z" />
<glyph unicode="&#xbf;" horiz-adv-x="741" d="M25 232v136q0 94 17 150.5t75 99t136 42.5q106 0 151 -78v119h260v-307h-253q-1 64 -46 64q-34 0 -43.5 -28t-9.5 -137v-186q0 -61 8.5 -82t34.5 -21q31 0 40 27.5t9 126.5v68h279q-1 -147 -24.5 -215t-102 -118.5t-199.5 -50.5q-88 0 -153.5 27.5t-104 77t-56.5 106.5 t-18 179zM404 759v224h260v-224h-260z" />
<glyph unicode="&#xc0;" horiz-adv-x="717" d="M-8 0l147 1117h421l166 -1117h-298l-14 201h-104l-17 -201h-301zM105 1340h246l121 -187h-140zM306 399h100q-22 190 -44 468q-45 -320 -56 -468z" />
<glyph unicode="&#xc1;" horiz-adv-x="717" d="M-8 0l147 1117h421l166 -1117h-298l-14 201h-104l-17 -201h-301zM228 1153l122 187h245l-227 -187h-140zM306 399h100q-22 190 -44 468q-45 -320 -56 -468z" />
<glyph unicode="&#xc2;" horiz-adv-x="717" d="M-8 0l147 1117h421l166 -1117h-298l-14 201h-104l-17 -201h-301zM77 1153l177 194h195l166 -194h-187l-76 90l-82 -90h-193zM306 399h100q-22 190 -44 468q-45 -320 -56 -468z" />
<glyph unicode="&#xc3;" horiz-adv-x="717" d="M-8 0l147 1117h421l166 -1117h-298l-14 201h-104l-17 -201h-301zM59 1225q76 134 171 134q50 0 109 -22l42 -16q54 -20 73 -20q58 0 76 62l111 -79q-31 -70 -77.5 -97.5t-81.5 -27.5q-49 0 -105 23l-52 20q-49 20 -73 20q-51 0 -84 -69zM306 399h100q-22 190 -44 468 q-45 -320 -56 -468z" />
<glyph unicode="&#xc4;" horiz-adv-x="717" d="M-8 0l147 1117h421l166 -1117h-298l-14 201h-104l-17 -201h-301zM109 1153v179h180v-179h-180zM306 399h100q-22 190 -44 468q-45 -320 -56 -468zM411 1153v179h180v-179h-180z" />
<glyph unicode="&#xc5;" horiz-adv-x="717" d="M-8 0l147 1117h421l166 -1117h-298l-14 201h-104l-17 -201h-301zM204 1280q0 60 43 102.5t103 42.5q58 0 101.5 -41.5t43.5 -103.5q0 -60 -43 -102.5t-102 -42.5q-61 0 -103.5 42.5t-42.5 102.5zM292 1277q0 -24 17 -40.5t40 -16.5t40 16.5t17 40.5t-17 40.5t-40 16.5 t-40 -16.5t-17 -40.5zM306 399h100q-22 190 -44 468q-45 -320 -56 -468z" />
<glyph unicode="&#xc6;" horiz-adv-x="1008" d="M-8 0l294 1117h683v-223h-196v-212h184v-213h-184v-245h210v-224h-500v201h-167l-47 -201h-277zM359 399h124v509z" />
<glyph unicode="&#xc7;" horiz-adv-x="782" d="M50 397v326q0 121 8 181.5t49 116t114 88t167 32.5q129 0 212.5 -50t109.5 -124t26 -231v-106h-290v195q0 84 -9.5 105.5t-41.5 21.5q-36 0 -45.5 -26t-9.5 -110v-519q0 -82 9.5 -106.5t43.5 -24.5q33 0 43 24.5t10 116.5v140h290v-43q0 -161 -19 -231t-95.5 -129 t-203.5 -67v-13q37 0 68.5 -24.5t31.5 -66.5q0 -52 -43 -90.5t-102 -38.5q-108 0 -138 109h102q10 -29 35 -29q21 0 31 10.5t10 30.5q0 23 -14.5 34.5t-43.5 11.5h-18v69q-118 11 -183.5 64.5t-84.5 130.5t-19 222z" />
<glyph unicode="&#xc8;" horiz-adv-x="587" d="M58 0v1117h484v-223h-194v-212h182v-213h-182v-245h214v-224h-504zM58 1340h246l121 -187h-140z" />
<glyph unicode="&#xc9;" horiz-adv-x="587" d="M58 0v1117h484v-223h-194v-212h182v-213h-182v-245h214v-224h-504zM161 1153l122 187h245l-227 -187h-140z" />
<glyph unicode="&#xca;" horiz-adv-x="587" d="M24 1153l177 194h195l166 -194h-187l-76 90l-82 -90h-193zM58 0v1117h484v-223h-194v-212h182v-213h-182v-245h214v-224h-504z" />
<glyph unicode="&#xcb;" horiz-adv-x="587" d="M52 1153v179h180v-179h-180zM58 0v1117h484v-223h-194v-212h182v-213h-182v-245h214v-224h-504zM354 1153v179h180v-179h-180z" />
<glyph unicode="&#xcc;" horiz-adv-x="407" d="M-32 1340h246l121 -187h-140zM58 0v1117h290v-1117h-290z" />
<glyph unicode="&#xcd;" horiz-adv-x="407" d="M58 0v1117h290v-1117h-290zM72 1153l122 187h245l-227 -187h-140z" />
<glyph unicode="&#xce;" horiz-adv-x="407" d="M-65 1153l177 194h195l166 -194h-187l-76 90l-82 -90h-193zM58 0v1117h290v-1117h-290z" />
<glyph unicode="&#xcf;" horiz-adv-x="407" d="M-37 1153v179h180v-179h-180zM58 0v1117h290v-1117h-290zM265 1153v179h180v-179h-180z" />
<glyph unicode="&#xd0;" horiz-adv-x="789" d="M10 559v119h56v439h218q210 0 284 -19.5t113 -63.5t48.5 -98t9.5 -213v-391q0 -151 -14 -201.5t-49.5 -79t-87 -40t-155.5 -11.5h-367v559h-56zM357 191q63 0 77 25.5t14 136.5v434q0 76 -4.5 97.5t-21.5 31.5t-65 10v-248h45v-119h-45v-368z" />
<glyph unicode="&#xd1;" horiz-adv-x="765" d="M58 0v1117h243l163 -503v503h243v-1117h-255l-151 508v-508h-243zM91 1225q76 134 171 134q50 0 109 -22l42 -16q54 -20 73 -20q58 0 76 62l111 -79q-31 -70 -77.5 -97.5t-81.5 -27.5q-49 0 -105 23l-52 20q-49 20 -73 20q-51 0 -84 -69z" />
<glyph unicode="&#xd2;" horiz-adv-x="772" d="M50 463v191q0 168 8 238.5t49.5 128t112.5 89t166 31.5q89 0 160.5 -29.5t115 -88t52 -127.5t8.5 -242v-191q0 -168 -8 -238t-50 -128t-113 -89t-165 -31q-90 0 -161.5 29t-115 87.5t-51.5 127.5t-8 242zM150 1340h246l121 -187h-140zM340 308q0 -97 8 -119.5t37 -22.5 q30 0 38 26t8 125v513q0 78 -8.5 100t-35.5 22q-23 0 -35 -18t-12 -104v-522z" />
<glyph unicode="&#xd3;" horiz-adv-x="772" d="M50 463v191q0 168 8 238.5t49.5 128t112.5 89t166 31.5q89 0 160.5 -29.5t115 -88t52 -127.5t8.5 -242v-191q0 -168 -8 -238t-50 -128t-113 -89t-165 -31q-90 0 -161.5 29t-115 87.5t-51.5 127.5t-8 242zM254 1153l122 187h245l-227 -187h-140zM340 308q0 -97 8 -119.5 t37 -22.5q30 0 38 26t8 125v513q0 78 -8.5 100t-35.5 22q-23 0 -35 -18t-12 -104v-522z" />
<glyph unicode="&#xd4;" horiz-adv-x="772" d="M50 463v191q0 168 8 238.5t49.5 128t112.5 89t166 31.5q89 0 160.5 -29.5t115 -88t52 -127.5t8.5 -242v-191q0 -168 -8 -238t-50 -128t-113 -89t-165 -31q-90 0 -161.5 29t-115 87.5t-51.5 127.5t-8 242zM117 1153l177 194h195l166 -194h-187l-76 90l-82 -90h-193z M340 308q0 -97 8 -119.5t37 -22.5q30 0 38 26t8 125v513q0 78 -8.5 100t-35.5 22q-23 0 -35 -18t-12 -104v-522z" />
<glyph unicode="&#xd5;" horiz-adv-x="772" d="M50 463v191q0 168 8 238.5t49.5 128t112.5 89t166 31.5q89 0 160.5 -29.5t115 -88t52 -127.5t8.5 -242v-191q0 -168 -8 -238t-50 -128t-113 -89t-165 -31q-90 0 -161.5 29t-115 87.5t-51.5 127.5t-8 242zM94 1225q76 134 171 134q50 0 109 -22l42 -16q54 -20 73 -20 q58 0 76 62l111 -79q-31 -70 -77.5 -97.5t-81.5 -27.5q-49 0 -105 23l-52 20q-49 20 -73 20q-51 0 -84 -69zM340 308q0 -97 8 -119.5t37 -22.5q30 0 38 26t8 125v513q0 78 -8.5 100t-35.5 22q-23 0 -35 -18t-12 -104v-522z" />
<glyph unicode="&#xd6;" horiz-adv-x="772" d="M50 463v191q0 168 8 238.5t49.5 128t112.5 89t166 31.5q89 0 160.5 -29.5t115 -88t52 -127.5t8.5 -242v-191q0 -168 -8 -238t-50 -128t-113 -89t-165 -31q-90 0 -161.5 29t-115 87.5t-51.5 127.5t-8 242zM145 1153v179h180v-179h-180zM340 308q0 -97 8 -119.5t37 -22.5 q30 0 38 26t8 125v513q0 78 -8.5 100t-35.5 22q-23 0 -35 -18t-12 -104v-522zM447 1153v179h180v-179h-180z" />
<glyph unicode="&#xd7;" horiz-adv-x="753" d="M51 774l119 119l207 -206l206 206l119 -119l-206 -207l205 -204l-119 -119l-205 204l-205 -204l-119 119l205 204z" />
<glyph unicode="&#xd8;" horiz-adv-x="772" d="M-38 60l101 133q-13 49 -13 270v191q0 168 8 238.5t49.5 128t112.5 89t166 31.5q100 0 171.5 -33t114.5 -99l74 96l63 -47l-101 -133q14 -53 14 -271v-191q0 -168 -8 -238t-50 -128t-113 -89t-165 -31q-101 0 -172.5 33t-114.5 98l-73 -96zM340 308q0 -97 8 -119.5 t37 -22.5q30 0 38 26t8 125v234l-91 -120v-123zM340 561l91 120v149q0 78 -8.5 100t-35.5 22q-28 0 -37.5 -23.5t-9.5 -98.5v-269z" />
<glyph unicode="&#xd9;" horiz-adv-x="772" d="M54 456v661h290v-838q0 -73 8 -93t32 -20q28 0 36 22t8 106v823h290v-746q0 -127 -8 -178.5t-49 -106t-107.5 -82t-156.5 -27.5q-100 0 -176.5 33t-114.5 86t-45 112t-7 248zM150 1340h246l121 -187h-140z" />
<glyph unicode="&#xda;" horiz-adv-x="772" d="M54 456v661h290v-838q0 -73 8 -93t32 -20q28 0 36 22t8 106v823h290v-746q0 -127 -8 -178.5t-49 -106t-107.5 -82t-156.5 -27.5q-100 0 -176.5 33t-114.5 86t-45 112t-7 248zM254 1153l122 187h245l-227 -187h-140z" />
<glyph unicode="&#xdb;" horiz-adv-x="772" d="M54 456v661h290v-838q0 -73 8 -93t32 -20q28 0 36 22t8 106v823h290v-746q0 -127 -8 -178.5t-49 -106t-107.5 -82t-156.5 -27.5q-100 0 -176.5 33t-114.5 86t-45 112t-7 248zM117 1153l177 194h195l166 -194h-187l-76 90l-82 -90h-193z" />
<glyph unicode="&#xdc;" horiz-adv-x="772" d="M54 456v661h290v-838q0 -73 8 -93t32 -20q28 0 36 22t8 106v823h290v-746q0 -127 -8 -178.5t-49 -106t-107.5 -82t-156.5 -27.5q-100 0 -176.5 33t-114.5 86t-45 112t-7 248zM145 1153v179h180v-179h-180zM447 1153v179h180v-179h-180z" />
<glyph unicode="&#xdd;" horiz-adv-x="668" d="M-8 1117h267q63 -326 70 -439q24 178 81 439h267l-212 -713v-404h-269v404zM203 1153l122 187h245l-227 -187h-140z" />
<glyph unicode="&#xde;" horiz-adv-x="709" d="M58 0v1117h290v-208q122 0 182.5 -17.5t96.5 -55t46.5 -85t10.5 -155.5v-96q0 -100 -19.5 -150.5t-77 -79t-161.5 -28.5h-78v-242h-290zM348 433h22q40 0 55.5 20t15.5 82v91q0 56 -18 74t-75 18v-285z" />
<glyph unicode="&#xdf;" horiz-adv-x="777" d="M50 0v746q0 162 18 230t93 116.5t208 48.5q165 0 256.5 -67t91.5 -187q0 -108 -95 -181q50 -23 79.5 -72.5t29.5 -197.5v-103q0 -102 -14.5 -154.5t-58 -97.5t-100 -63t-138.5 -18h-54v169h32q38 0 46.5 12.5t8.5 97.5v273q-1 48 -10.5 64.5t-44.5 21.5v169q15 0 29 9 t14 56q0 53 -14 79.5t-43 26.5q-32 0 -44 -23t-12 -93v-862h-278z" />
<glyph unicode="&#xe0;" horiz-adv-x="712" d="M37 204v75q0 103 32.5 140.5t160.5 86.5q138 54 147.5 73t9.5 76q0 72 -10.5 93.5t-35.5 21.5q-28 0 -35 -18.5t-7 -94.5v-96h-262v61q0 107 24.5 164.5t98.5 101.5t192 44q141 0 213 -50t86.5 -122.5t14.5 -299.5v-460h-271v81q-26 -49 -66.5 -73.5t-95.5 -24.5 q-74 0 -135 41.5t-61 179.5zM120 1164h246l121 -187h-140zM299 258q0 -71 9 -91.5t37 -20.5q26 0 34 16t8 85v188q-67 -49 -77.5 -82t-10.5 -95z" />
<glyph unicode="&#xe1;" horiz-adv-x="712" d="M37 204v75q0 103 32.5 140.5t160.5 86.5q138 54 147.5 73t9.5 76q0 72 -10.5 93.5t-35.5 21.5q-28 0 -35 -18.5t-7 -94.5v-96h-262v61q0 107 24.5 164.5t98.5 101.5t192 44q141 0 213 -50t86.5 -122.5t14.5 -299.5v-460h-271v81q-26 -49 -66.5 -73.5t-95.5 -24.5 q-74 0 -135 41.5t-61 179.5zM224 977l122 187h245l-227 -187h-140zM299 258q0 -71 9 -91.5t37 -20.5q26 0 34 16t8 85v188q-67 -49 -77.5 -82t-10.5 -95z" />
<glyph unicode="&#xe2;" horiz-adv-x="712" d="M37 204v75q0 103 32.5 140.5t160.5 86.5q138 54 147.5 73t9.5 76q0 72 -10.5 93.5t-35.5 21.5q-28 0 -35 -18.5t-7 -94.5v-96h-262v61q0 107 24.5 164.5t98.5 101.5t192 44q141 0 213 -50t86.5 -122.5t14.5 -299.5v-460h-271v81q-26 -49 -66.5 -73.5t-95.5 -24.5 q-74 0 -135 41.5t-61 179.5zM87 977l177 194h195l166 -194h-187l-76 90l-82 -90h-193zM299 258q0 -71 9 -91.5t37 -20.5q26 0 34 16t8 85v188q-67 -49 -77.5 -82t-10.5 -95z" />
<glyph unicode="&#xe3;" horiz-adv-x="712" d="M37 204v75q0 103 32.5 140.5t160.5 86.5q138 54 147.5 73t9.5 76q0 72 -10.5 93.5t-35.5 21.5q-28 0 -35 -18.5t-7 -94.5v-96h-262v61q0 107 24.5 164.5t98.5 101.5t192 44q141 0 213 -50t86.5 -122.5t14.5 -299.5v-460h-271v81q-26 -49 -66.5 -73.5t-95.5 -24.5 q-74 0 -135 41.5t-61 179.5zM65 1049q76 134 171 134q50 0 109 -22l42 -16q54 -20 73 -20q58 0 76 62l111 -79q-31 -70 -77.5 -97.5t-81.5 -27.5q-49 0 -105 23l-52 20q-49 20 -73 20q-51 0 -84 -69zM299 258q0 -71 9 -91.5t37 -20.5q26 0 34 16t8 85v188q-67 -49 -77.5 -82 t-10.5 -95z" />
<glyph unicode="&#xe4;" horiz-adv-x="712" d="M37 204v75q0 103 32.5 140.5t160.5 86.5q138 54 147.5 73t9.5 76q0 72 -10.5 93.5t-35.5 21.5q-28 0 -35 -18.5t-7 -94.5v-96h-262v61q0 107 24.5 164.5t98.5 101.5t192 44q141 0 213 -50t86.5 -122.5t14.5 -299.5v-460h-271v81q-26 -49 -66.5 -73.5t-95.5 -24.5 q-74 0 -135 41.5t-61 179.5zM115 977v179h180v-179h-180zM299 258q0 -71 9 -91.5t37 -20.5q26 0 34 16t8 85v188q-67 -49 -77.5 -82t-10.5 -95zM417 977v179h180v-179h-180z" />
<glyph unicode="&#xe5;" horiz-adv-x="712" d="M37 204v75q0 103 32.5 140.5t160.5 86.5q138 54 147.5 73t9.5 76q0 72 -10.5 93.5t-35.5 21.5q-28 0 -35 -18.5t-7 -94.5v-96h-262v61q0 107 24.5 164.5t98.5 101.5t192 44q141 0 213 -50t86.5 -122.5t14.5 -299.5v-460h-271v81q-26 -49 -66.5 -73.5t-95.5 -24.5 q-74 0 -135 41.5t-61 179.5zM210 1122q0 60 43 102.5t103 42.5q58 0 101.5 -41.5t43.5 -103.5q0 -60 -43 -102.5t-102 -42.5q-61 0 -103.5 42.5t-42.5 102.5zM298 1119q0 -24 17 -40.5t40 -16.5t40 16.5t17 40.5t-17 40.5t-40 16.5t-40 -16.5t-17 -40.5zM299 258 q0 -71 9 -91.5t37 -20.5q26 0 34 16t8 85v188q-67 -49 -77.5 -82t-10.5 -95z" />
<glyph unicode="&#xe6;" horiz-adv-x="1064" d="M37 249q0 97 14.5 132.5t58.5 63.5t152 66q57 19 77 32t28 32.5t8 84.5q0 62 -8.5 86t-31.5 24q-22 0 -28.5 -20t-6.5 -101v-88h-261v68q0 76 10.5 119.5t49 87.5t97.5 70t150 26q51 0 99 -12.5t91 -36.5q32 24 74 36.5t94 12.5q105 0 180.5 -45.5t107 -116.5t31.5 -210 v-118h-364v-185q0 -71 9 -91t38 -20q31 0 42 20.5t11 85.5v130h264v-92q0 -91 -27.5 -153t-99 -108t-176.5 -46q-96 0 -163.5 26.5t-107.5 78.5q-38 -52 -89.5 -78.5t-116.5 -26.5q-76 0 -125.5 31.5t-65 79t-15.5 155.5zM290 243q0 -53 11 -75t39 -22q20 0 30 13.5t10 40.5 v82v148q-53 -39 -71.5 -70.5t-18.5 -116.5zM659 591h85v82q0 65 -12 81t-30 16q-23 0 -33 -18.5t-10 -78.5v-82z" />
<glyph unicode="&#xe7;" horiz-adv-x="698" d="M41 344v260q0 116 23.5 175.5t100.5 106t186 46.5t186.5 -46t103 -116.5t25.5 -199.5h-263v106q0 55 -9 74.5t-33 19.5t-32.5 -17t-8.5 -77v-432q0 -49 12.5 -73.5t36.5 -24.5q28 0 38 25.5t10 96.5v109h249q-1 -102 -7 -156.5t-41 -111t-92 -88t-149 -37.5v-20 q36 0 67.5 -24t31.5 -67q0 -52 -42.5 -90.5t-102.5 -38.5q-107 0 -137 109h102q10 -29 35 -29q20 0 30 10.5t10 30.5q0 23 -14 34.5t-43 11.5h-18v76q-104 12 -155.5 54.5t-75.5 107.5t-24 195z" />
<glyph unicode="&#xe8;" d="M41 333v267q0 120 32.5 189t106.5 106t170 37q117 0 193.5 -44.5t107 -118t30.5 -206.5v-121h-361v-198q0 -63 9 -80.5t35 -17.5q31 0 42 23.5t11 92.5v120h264v-67q0 -85 -10.5 -130.5t-50 -97.5t-100 -78t-151.5 -26q-88 0 -155.5 25.5t-105.5 70.5t-52.5 98t-14.5 156 zM126 1164h246l121 -187h-140zM320 591h82v67q0 71 -8 91.5t-31 20.5q-29 0 -36 -17.5t-7 -94.5v-67z" />
<glyph unicode="&#xe9;" d="M41 333v267q0 120 32.5 189t106.5 106t170 37q117 0 193.5 -44.5t107 -118t30.5 -206.5v-121h-361v-198q0 -63 9 -80.5t35 -17.5q31 0 42 23.5t11 92.5v120h264v-67q0 -85 -10.5 -130.5t-50 -97.5t-100 -78t-151.5 -26q-88 0 -155.5 25.5t-105.5 70.5t-52.5 98t-14.5 156 zM230 977l122 187h245l-227 -187h-140zM320 591h82v67q0 71 -8 91.5t-31 20.5q-29 0 -36 -17.5t-7 -94.5v-67z" />
<glyph unicode="&#xea;" d="M41 333v267q0 120 32.5 189t106.5 106t170 37q117 0 193.5 -44.5t107 -118t30.5 -206.5v-121h-361v-198q0 -63 9 -80.5t35 -17.5q31 0 42 23.5t11 92.5v120h264v-67q0 -85 -10.5 -130.5t-50 -97.5t-100 -78t-151.5 -26q-88 0 -155.5 25.5t-105.5 70.5t-52.5 98t-14.5 156 zM92 977l177 194h195l166 -194h-187l-76 90l-82 -90h-193zM320 591h82v67q0 71 -8 91.5t-31 20.5q-29 0 -36 -17.5t-7 -94.5v-67z" />
<glyph unicode="&#xeb;" d="M41 333v267q0 120 32.5 189t106.5 106t170 37q117 0 193.5 -44.5t107 -118t30.5 -206.5v-121h-361v-198q0 -63 9 -80.5t35 -17.5q31 0 42 23.5t11 92.5v120h264v-67q0 -85 -10.5 -130.5t-50 -97.5t-100 -78t-151.5 -26q-88 0 -155.5 25.5t-105.5 70.5t-52.5 98t-14.5 156 zM120 977v179h180v-179h-180zM320 591h82v67q0 71 -8 91.5t-31 20.5q-29 0 -36 -17.5t-7 -94.5v-67zM422 977v179h180v-179h-180z" />
<glyph unicode="&#xec;" horiz-adv-x="387" d="M-40 1164h246l121 -187h-140zM50 0v916h287v-916h-287z" />
<glyph unicode="&#xed;" horiz-adv-x="387" d="M50 0v916h287v-916h-287zM64 977l122 187h245l-227 -187h-140z" />
<glyph unicode="&#xee;" horiz-adv-x="387" d="M-73 977l177 194h195l166 -194h-187l-76 90l-82 -90h-193zM50 0v916h287v-916h-287z" />
<glyph unicode="&#xef;" horiz-adv-x="387" d="M-45 977v179h180v-179h-180zM50 0v916h287v-916h-287zM257 977v179h180v-179h-180z" />
<glyph unicode="&#xf0;" d="M41 341v201q0 121 24 186.5t84.5 114t136.5 48.5q68 0 116 -39q-13 74 -51 140l-132 -36l-21 62l115 32q-34 46 -58 67h169q19 -13 36 -27l111 27l20 -61l-78 -22q47 -55 89 -131.5t60.5 -155t18.5 -212.5v-209q0 -115 -30 -187.5t-105 -114t-190 -41.5t-188.5 39 t-100 106t-26.5 213zM320 242q0 -57 10 -76.5t32 -19.5t31 19t9 85v376q0 68 -8 85.5t-32 17.5t-33 -21t-9 -73v-393z" />
<glyph unicode="&#xf1;" horiz-adv-x="738" d="M50 0v916h283l-5 -85q31 51 74.5 76t101.5 25q71 0 117 -33.5t59 -85t13 -171.5v-642h-279v634q0 95 -6 115.5t-35 20.5t-37 -24t-8 -127v-619h-278zM78 1049q76 134 171 134q50 0 109 -22l42 -16q54 -20 73 -20q58 0 76 62l111 -79q-31 -70 -77.5 -97.5t-81.5 -27.5 q-49 0 -105 23l-52 20q-49 20 -73 20q-51 0 -84 -69z" />
<glyph unicode="&#xf2;" d="M41 339v235q0 128 28 199.5t99.5 115t183.5 43.5q94 0 161 -28t103.5 -72.5t50 -92.5t13.5 -145v-224q0 -124 -12 -181.5t-53 -107.5t-105 -74t-146 -24q-93 0 -157 20.5t-99.5 61.5t-51 99.5t-15.5 174.5zM126 1164h246l121 -187h-140zM320 250q0 -65 8.5 -84.5 t32.5 -19.5q25 0 33 17.5t8 77.5v422q0 70 -8 88.5t-32 18.5q-25 0 -33.5 -18.5t-8.5 -88.5v-413z" />
<glyph unicode="&#xf3;" d="M41 339v235q0 128 28 199.5t99.5 115t183.5 43.5q94 0 161 -28t103.5 -72.5t50 -92.5t13.5 -145v-224q0 -124 -12 -181.5t-53 -107.5t-105 -74t-146 -24q-93 0 -157 20.5t-99.5 61.5t-51 99.5t-15.5 174.5zM230 977l122 187h245l-227 -187h-140zM320 250q0 -65 8.5 -84.5 t32.5 -19.5q25 0 33 17.5t8 77.5v422q0 70 -8 88.5t-32 18.5q-25 0 -33.5 -18.5t-8.5 -88.5v-413z" />
<glyph unicode="&#xf4;" d="M41 339v235q0 128 28 199.5t99.5 115t183.5 43.5q94 0 161 -28t103.5 -72.5t50 -92.5t13.5 -145v-224q0 -124 -12 -181.5t-53 -107.5t-105 -74t-146 -24q-93 0 -157 20.5t-99.5 61.5t-51 99.5t-15.5 174.5zM92 977l177 194h195l166 -194h-187l-76 90l-82 -90h-193z M320 250q0 -65 8.5 -84.5t32.5 -19.5q25 0 33 17.5t8 77.5v422q0 70 -8 88.5t-32 18.5q-25 0 -33.5 -18.5t-8.5 -88.5v-413z" />
<glyph unicode="&#xf5;" d="M41 339v235q0 128 28 199.5t99.5 115t183.5 43.5q94 0 161 -28t103.5 -72.5t50 -92.5t13.5 -145v-224q0 -124 -12 -181.5t-53 -107.5t-105 -74t-146 -24q-93 0 -157 20.5t-99.5 61.5t-51 99.5t-15.5 174.5zM70 1049q76 134 171 134q50 0 109 -22l42 -16q54 -20 73 -20 q58 0 76 62l111 -79q-31 -70 -77.5 -97.5t-81.5 -27.5q-49 0 -105 23l-52 20q-49 20 -73 20q-51 0 -84 -69zM320 250q0 -65 8.5 -84.5t32.5 -19.5q25 0 33 17.5t8 77.5v422q0 70 -8 88.5t-32 18.5q-25 0 -33.5 -18.5t-8.5 -88.5v-413z" />
<glyph unicode="&#xf6;" d="M41 339v235q0 128 28 199.5t99.5 115t183.5 43.5q94 0 161 -28t103.5 -72.5t50 -92.5t13.5 -145v-224q0 -124 -12 -181.5t-53 -107.5t-105 -74t-146 -24q-93 0 -157 20.5t-99.5 61.5t-51 99.5t-15.5 174.5zM120 977v179h180v-179h-180zM320 250q0 -65 8.5 -84.5 t32.5 -19.5q25 0 33 17.5t8 77.5v422q0 70 -8 88.5t-32 18.5q-25 0 -33.5 -18.5t-8.5 -88.5v-413zM422 977v179h180v-179h-180z" />
<glyph unicode="&#xf7;" horiz-adv-x="753" d="M44 477v163h665v-163h-665zM279 328q0 44 29 71.5t67 27.5q40 0 68.5 -28t28.5 -68t-28.5 -68t-68.5 -28t-68 29t-28 64zM279 789q0 41 28.5 68.5t67.5 27.5t67.5 -28t28.5 -67t-28.5 -67.5t-67.5 -28.5q-41 0 -68.5 29t-27.5 66z" />
<glyph unicode="&#xf8;" d="M41 339v235q0 128 28 199.5t99.5 115t183.5 43.5q72 0 130 -17t101 -52l28 43l54 -35l-36 -56q27 -37 39 -80t12 -141v-224q0 -124 -12 -181.5t-53 -107.5t-104.5 -74t-146.5 -24q-79 0 -137 15t-95 44l-21 -32l-54 35l31 47q-24 39 -35.5 87.5t-11.5 159.5zM320 250 q0 -65 8.5 -84.5t32.5 -19.5q25 0 33 17.5t8 77.5v216l-82 -125v-82zM320 452l82 124v87q0 70 -8 88.5t-32 18.5q-25 0 -33.5 -18.5t-8.5 -88.5v-211z" />
<glyph unicode="&#xf9;" horiz-adv-x="738" d="M46 298v618h278v-623q0 -107 6.5 -127t35.5 -20q31 0 37 20.5t6 132.5v617h279v-916h-284l5 76q-29 -46 -71.5 -69.5t-97.5 -23.5q-63 0 -104 22.5t-61 59t-24.5 76t-4.5 157.5zM133 1164h246l121 -187h-140z" />
<glyph unicode="&#xfa;" horiz-adv-x="738" d="M46 298v618h278v-623q0 -107 6.5 -127t35.5 -20q31 0 37 20.5t6 132.5v617h279v-916h-284l5 76q-29 -46 -71.5 -69.5t-97.5 -23.5q-63 0 -104 22.5t-61 59t-24.5 76t-4.5 157.5zM237 977l122 187h245l-227 -187h-140z" />
<glyph unicode="&#xfb;" horiz-adv-x="738" d="M46 298v618h278v-623q0 -107 6.5 -127t35.5 -20q31 0 37 20.5t6 132.5v617h279v-916h-284l5 76q-29 -46 -71.5 -69.5t-97.5 -23.5q-63 0 -104 22.5t-61 59t-24.5 76t-4.5 157.5zM100 977l177 194h195l166 -194h-187l-76 90l-82 -90h-193z" />
<glyph unicode="&#xfc;" horiz-adv-x="738" d="M46 298v618h278v-623q0 -107 6.5 -127t35.5 -20q31 0 37 20.5t6 132.5v617h279v-916h-284l5 76q-29 -46 -71.5 -69.5t-97.5 -23.5q-63 0 -104 22.5t-61 59t-24.5 76t-4.5 157.5zM128 977v179h180v-179h-180zM430 977v179h180v-179h-180z" />
<glyph unicode="&#xfd;" horiz-adv-x="633" d="M-8 916h253l91 -618l44 618h253l-80 -663q-18 -157 -31 -214.5t-42.5 -94.5t-82.5 -54.5t-169 -17.5h-169v146q65 0 83.5 6.5t18.5 29.5q0 11 -17 96zM194 977l122 187h245l-227 -187h-140z" />
<glyph unicode="&#xfe;" horiz-adv-x="733" d="M50 -130v1247h278v-282q74 97 181 97q64 0 111.5 -35t59 -80.5t11.5 -154.5v-385q0 -125 -14.5 -178t-60.5 -84.5t-111 -31.5q-103 0 -177 96v-209h-278zM328 270q0 -83 8.5 -103.5t36.5 -20.5q27 0 33.5 19t6.5 92v392q0 85 -6.5 103t-34.5 18t-36 -20.5t-8 -100.5v-379 z" />
<glyph unicode="&#xff;" horiz-adv-x="633" d="M-8 916h253l91 -618l44 618h253l-80 -663q-18 -157 -31 -214.5t-42.5 -94.5t-82.5 -54.5t-169 -17.5h-169v146q65 0 83.5 6.5t18.5 29.5q0 11 -17 96zM85 977v179h180v-179h-180zM387 977v179h180v-179h-180z" />
<glyph unicode="&#x131;" horiz-adv-x="387" d="M50 0v916h287v-916h-287z" />
<glyph unicode="&#x152;" horiz-adv-x="972" d="M50 364v365q0 125 9.5 182.5t49.5 108t108.5 80t167.5 29.5q57 0 128 -12h411v-223h-196v-212h187v-213h-187v-245h219v-224h-436q-95 -12 -131 -12q-88 0 -162 31.5t-110 79t-47 99.5t-11 166zM340 359q0 -129 7.5 -155.5t38.5 -26.5q32 0 41.5 30t9.5 139v420v51 q-2 30 -2 42q0 81 -48 81q-28 0 -37 -18.5t-9 -63.5l-1 -51v-448z" />
<glyph unicode="&#x153;" horiz-adv-x="1081" d="M41 342v200q0 147 19 213t96 121.5t195 55.5q53 0 100 -13.5t89 -41.5q35 28 80.5 41.5t99.5 13.5q97 0 182 -46.5t111 -121t26 -191.5v-131h-359v-205q0 -57 9 -74t33 -17q30 0 42 29t12 94v113h263v-90q0 -93 -29 -155t-104 -108t-178 -46q-55 0 -101.5 11t-86.5 32 q-38 -21 -82.5 -32t-95.5 -11q-94 0 -161.5 30t-103.5 75t-46 92.5t-10 161.5zM320 267q0 -86 6.5 -103.5t32.5 -17.5t34.5 19.5t8.5 91.5v381q0 89 -8 110.5t-35 21.5q-23 0 -31 -20t-8 -84v-399zM680 590h80v98q0 59 -12.5 70.5t-27.5 11.5q-23 0 -31.5 -15.5t-8.5 -66.5 v-98z" />
<glyph unicode="&#x178;" horiz-adv-x="668" d="M-8 1117h267q63 -326 70 -439q24 178 81 439h267l-212 -713v-404h-269v404zM94 1153v179h180v-179h-180zM396 1153v179h180v-179h-180z" />
<glyph unicode="&#x192;" horiz-adv-x="626" d="M-33 -158l30 147q42 0 48.5 6t15.5 51l96 479h-96l31 168h99l42 215q24 126 52 161.5t64.5 52t129.5 16.5h148l-29 -146q-40 0 -49 -3t-14 -31q-1 -4 -6 -29l-47 -236h102l-33 -168h-101l-92 -464q-26 -132 -75.5 -175.5t-190.5 -43.5h-125z" />
<glyph unicode="&#x2c6;" horiz-adv-x="471" d="M-33 1036l177 194h195l166 -194h-187l-76 90l-82 -90h-193z" />
<glyph unicode="&#x2da;" horiz-adv-x="471" d="M90 1181q0 60 43 102.5t103 42.5q58 0 101.5 -41.5t43.5 -103.5q0 -60 -43 -102.5t-102 -42.5q-61 0 -103.5 42.5t-42.5 102.5zM178 1178q0 -24 17 -40.5t40 -16.5t40 16.5t17 40.5t-17 40.5t-40 16.5t-40 -16.5t-17 -40.5z" />
<glyph unicode="&#x2dc;" horiz-adv-x="471" d="M-56 1108q76 134 171 134q50 0 109 -22l42 -16q54 -20 73 -20q58 0 76 62l111 -79q-31 -70 -77.5 -97.5t-81.5 -27.5q-49 0 -105 23l-52 20q-49 20 -73 20q-51 0 -84 -69z" />
<glyph unicode="&#x3a9;" horiz-adv-x="792" d="M42 0v168h43q32 0 109 -7q-61 40 -98.5 118t-37.5 182v264q0 145 7 193.5t46 103.5t107 79.5t176 24.5q100 0 170.5 -24t112.5 -75.5t50 -102t8 -199.5v-264q0 -104 -37.5 -182t-98.5 -118q64 7 103 7h48v-168h-335v170q29 27 29 143v528q0 82 -10 102.5t-35 20.5 q-28 0 -39 -19.5t-11 -103.5v-528q0 -116 28 -143v-170h-335z" />
<glyph unicode="&#x3c0;" horiz-adv-x="768" d="M4 758v158h761v-158h-58v-758h-279v758h-86v-758h-279v758h-59z" />
<glyph unicode="&#x401;" horiz-adv-x="587" d="M58 0v1117h484v-223h-194v-212h182v-213h-182v-245h214v-224h-504zM75 1153v179h180v-179h-180zM377 1153v179h180v-179h-180z" />
<glyph unicode="&#x402;" horiz-adv-x="934" d="M7 923v195h635v-195h-171v-241q29 44 87.5 66.5t128.5 22.5q55 0 102 -26t67 -74t20 -138v-285q0 -153 -51 -200.5t-205 -47.5h-97v193q37 0 49.5 21.5t12.5 65.5v202q0 92 -11 114t-39 22q-64 0 -64 -112v-506h-292v923h-172z" />
<glyph unicode="&#x403;" horiz-adv-x="582" d="M58 0v1118h504v-224h-213v-894h-291zM176 1153l122 187h245l-227 -187h-140z" />
<glyph unicode="&#x404;" horiz-adv-x="783" d="M58 304v547q0 275 326 275q194 0 269 -63t75 -208v-95h-279v129q0 66 -50 66q-25 0 -37.5 -18t-12.5 -78v-193h167v-163h-167v-185q0 -92 8 -123t45 -31q47 0 47 68v171h279v-88q0 -169 -84 -246t-267 -77q-164 0 -241.5 74.5t-77.5 237.5z" />
<glyph unicode="&#x405;" horiz-adv-x="730" d="M34 827q0 128 32.5 187.5t106 93t176.5 33.5q113 0 193 -37t105.5 -92.5t25.5 -188.5v-44h-269v83q0 58 -10.5 74t-34.5 16q-26 0 -39.5 -21.5t-13.5 -65.5q0 -56 15 -84q14 -28 82 -68q194 -115 244 -189q51 -74 51 -238q0 -120 -28 -176.5t-108 -94.5t-187 -38 q-116 0 -198.5 44t-108 112t-25.5 194v73h270v-136q0 -63 11 -80.5t40 -17.5t43.5 22.5t14.5 67.5q0 99 -27 129q-28 30 -136 101q-109 72 -144 104.5t-58 90t-23 146.5z" />
<glyph unicode="&#x406;" horiz-adv-x="407" d="M58 0v1117h290v-1117h-290z" />
<glyph unicode="&#x407;" horiz-adv-x="407" d="M-39 1153v179h180v-179h-180zM58 0v1117h290v-1117h-290zM263 1153v179h180v-179h-180z" />
<glyph unicode="&#x408;" horiz-adv-x="467" d="M12 0v195q27 -2 38 -2q31 0 49 15.5t21 37.5t3 85v786h290v-746q0 -168 -3.5 -216t-31 -86.5t-75.5 -53.5t-145 -15h-146z" />
<glyph unicode="&#x409;" horiz-adv-x="1186" d="M7 0v193q53 0 73 13t20 89v823h667v-383h46q134 0 203 -16t103 -70t34 -170v-217q0 -125 -32.5 -179.5t-98.5 -68.5t-209 -14h-337v894h-85v-632q0 -125 -32 -179.5t-97.5 -68.5t-209.5 -14h-45zM767 193q55 0 75 14t20 88v162q0 70 -14 85.5t-81 17.5v-367z" />
<glyph unicode="&#x40a;" horiz-adv-x="1147" d="M58 0v1118h291v-400h85v400h291v-383h45q135 0 203.5 -16t103 -70t34.5 -170v-217q0 -125 -32.5 -179.5t-98.5 -68.5t-210 -14h-336v469h-85v-469h-291zM725 193q55 0 75 14t20 88v162q0 70 -14.5 85.5t-80.5 17.5v-367z" />
<glyph unicode="&#x40b;" horiz-adv-x="934" d="M7 923v195h635v-195h-171v-245q29 45 89 69t127 24q80 0 123.5 -31.5t54.5 -84.5t11 -166v-489h-291v482q0 92 -11 114t-39 22q-64 0 -64 -112v-506h-292v923h-172z" />
<glyph unicode="&#x40c;" horiz-adv-x="757" d="M58 0v1118h291l2 -472q82 2 84 91l6 218q3 121 47 163h268q-39 -41 -38 -169l1 -191q1 -174 -196 -198q197 -25 196 -201l-1 -178q-1 -127 38 -181h-268q-47 42 -47 163v218q0 41 -25 66.5t-65 25.5l-2 -473h-291zM310 1049l36 186h190l-87 -186h-139z" />
<glyph unicode="&#x40e;" horiz-adv-x="633" d="M-8 1118h252l92 -696l44 696h253l-79 -741q-19 -175 -40 -245.5t-82.5 -101t-202.5 -30.5h-170v144h18q57 0 70.5 9.5t13.5 28.5q0 2 -17 95zM127 1361h117q9 -94 78 -94q71 0 79 94h117q-4 -94 -54.5 -151t-141.5 -57t-141 57.5t-54 150.5z" />
<glyph unicode="&#x40f;" horiz-adv-x="784" d="M58 0v1118h291v-894h86v894h292v-1118h-232v-193h-201v193h-236z" />
<glyph unicode="&#x410;" horiz-adv-x="717" d="M-8 0l147 1117h421l166 -1117h-298l-14 201h-104l-17 -201h-301zM306 399h100q-22 190 -44 468q-45 -320 -56 -468z" />
<glyph unicode="&#x411;" horiz-adv-x="779" d="M58 0v1118h569v-194h-278v-189h45q135 0 204 -16t103 -70t34 -170v-217q0 -125 -32.5 -179.5t-98.5 -68.5t-210 -14h-336zM349 193q55 0 75 14t20 88v162q0 70 -14.5 85.5t-80.5 17.5v-367z" />
<glyph unicode="&#x412;" horiz-adv-x="780" d="M58 0v1117h290q137 0 208 -21.5t114 -86.5t43 -210q0 -98 -30.5 -136.5t-120.5 -59.5q100 -23 136 -75.5t36 -161.5v-104q0 -113 -26 -167.5t-82.5 -74.5t-231.5 -20h-336zM348 191q62 2 79 19.5t17 84.5v105q0 71 -15.5 86.5t-80.5 17.5v-313zM348 678h29q43 0 55 21 t12 121q0 52 -10 73t-25.5 26.5t-60.5 6.5v-248z" />
<glyph unicode="&#x413;" horiz-adv-x="582" d="M58 0v1118h504v-224h-213v-894h-291z" />
<glyph unicode="&#x414;" horiz-adv-x="921" d="M19 -193v426h59q47 138 77 361.5t30 489.5v34h644v-883h60v-428h-201v193h-469v-193h-200zM383 235h155v662h-86v-8q0 -321 -69 -654z" />
<glyph unicode="&#x415;" horiz-adv-x="587" d="M58 0v1117h484v-223h-194v-212h182v-213h-182v-245h214v-224h-504z" />
<glyph unicode="&#x416;" horiz-adv-x="1046" d="M16 0q31 45 31 133v251q0 80 44.5 122.5t152.5 59.5v2q-196 10 -196 182v237q0 87 -31 131h240q11 -4 21 -30t10 -76v-279q0 -76 91 -79v464h291v-464q92 3 92 79v279q0 58 12.5 82t18.5 24h240q-31 -44 -31 -131v-237q0 -172 -197 -182v-2q109 -17 153.5 -59.5 t44.5 -122.5v-251q0 -88 31 -133h-240q-11 5 -21 31t-10 77v294q0 76 -93 78v-480h-291v480q-92 -2 -92 -78v-294q0 -59 -12.5 -83.5t-18.5 -24.5h-240z" />
<glyph unicode="&#x417;" horiz-adv-x="749" d="M41 355v89h279v-182q0 -72 8.5 -92t38.5 -20q33 0 43 25t10 130v77q0 64 -14.5 94t-42.5 39t-110 11v162q100 0 123.5 7.5t33.5 33t10 80.5v62q0 58 -12 77t-37 19q-29 0 -40 -20t-11 -84v-92h-279v96q0 160 73.5 216t232.5 56q199 0 270.5 -78t71.5 -216 q0 -94 -25.5 -136t-90.5 -76q64 -22 95 -70.5t31 -227.5q0 -134 -30.5 -207t-105 -111.5t-190.5 -38.5q-133 0 -208.5 44.5t-99.5 109t-24 223.5z" />
<glyph unicode="&#x418;" horiz-adv-x="764" d="M58 0v1118h243v-505l163 505h243v-1118h-243v509l-151 -509h-255z" />
<glyph unicode="&#x419;" horiz-adv-x="764" d="M58 0v1118h243v-505l163 505h243v-1118h-243v509l-151 -509h-255zM185 1361h117q9 -94 78 -94q71 0 79 94h117q-4 -94 -54.5 -151t-141.5 -57t-141 57.5t-54 150.5z" />
<glyph unicode="&#x41a;" horiz-adv-x="757" d="M58 0v1118h291l2 -472q82 2 84 91l6 218q3 121 47 163h268q-39 -41 -38 -169l1 -191q1 -174 -196 -198q197 -25 196 -201l-1 -178q-1 -127 38 -181h-268q-47 42 -47 163v218q0 41 -25 66.5t-65 25.5l-2 -473h-291z" />
<glyph unicode="&#x41b;" horiz-adv-x="825" d="M7 0v193q53 0 73 13t20 89v823h667v-1118h-291v894h-85v-632q0 -125 -32 -179.5t-97.5 -68.5t-209.5 -14h-45z" />
<glyph unicode="&#x41c;" horiz-adv-x="1012" d="M58 0v1117h376q17 -101 35 -237l40 -285l66 522h379v-1117h-254v754l-101 -754h-180l-107 737v-737h-254z" />
<glyph unicode="&#x41d;" horiz-adv-x="784" d="M58 0v1117h290v-399h87v399h291v-1117h-291v469h-87v-469h-290z" />
<glyph unicode="&#x41e;" horiz-adv-x="772" d="M50 463v191q0 168 8 238.5t49.5 128t112.5 89t166 31.5q89 0 160.5 -29.5t115 -88t52 -127.5t8.5 -242v-191q0 -168 -8 -238t-50 -128t-113 -89t-165 -31q-90 0 -161.5 29t-115 87.5t-51.5 127.5t-8 242zM340 308q0 -97 8 -119.5t37 -22.5q30 0 38 26t8 125v513 q0 78 -8.5 100t-35.5 22q-23 0 -35 -18t-12 -104v-522z" />
<glyph unicode="&#x41f;" horiz-adv-x="784" d="M58 0v1118h669v-1118h-292v894h-86v-894h-291z" />
<glyph unicode="&#x420;" horiz-adv-x="709" d="M58 0v1117h293q118 0 182 -18.5t96 -54t43.5 -85.5t11.5 -154v-98q0 -107 -22 -156t-81 -75t-155 -26h-78v-450h-290zM348 642q13 -1 22 -1q40 0 55.5 19.5t15.5 81.5v92q0 57 -18 74.5t-75 17.5v-284z" />
<glyph unicode="&#x421;" horiz-adv-x="782" d="M50 397v326q0 121 8 181.5t49 116t114 88t167 32.5q129 0 212.5 -50t109.5 -124t26 -231v-106h-290v195q0 84 -9.5 105.5t-41.5 21.5q-36 0 -45.5 -26t-9.5 -110v-519q0 -82 9.5 -106.5t43.5 -24.5q33 0 43 24.5t10 116.5v140h290v-43q0 -174 -24.5 -246t-108 -126.5 t-206.5 -54.5q-128 0 -210.5 46t-109.5 128t-27 246z" />
<glyph unicode="&#x422;" horiz-adv-x="651" d="M8 894v223h635v-223h-172v-894h-291v894h-172z" />
<glyph unicode="&#x423;" horiz-adv-x="633" d="M-8 1118h252l92 -696l44 696h253l-79 -741q-19 -175 -40 -245.5t-82.5 -101t-202.5 -30.5h-170v144h18q57 0 70.5 9.5t13.5 28.5q0 2 -17 95z" />
<glyph unicode="&#x424;" horiz-adv-x="1126" d="M21 547v19q0 110 11 158q14 67 61 121q73 82 276 82q15 0 45 2v189h291v-189q35 -2 51 -2q204 0 276 -82q46 -54 61 -121q10 -48 10 -158v-19q0 -110 -10 -158q-15 -67 -61 -121q-74 -83 -276 -83h-51v-185h-291v185h-45q-203 0 -276 83q-47 54 -61 121q-11 48 -11 158z M313 484q0 -56 22 -90.5t55 -34.5h24v396h-24q-33 0 -55 -34.5t-22 -91.5v-145zM705 359h30q33 0 55.5 34.5t22.5 90.5v145q0 57 -22.5 91.5t-55.5 34.5h-30v-396zM1105 547z" />
<glyph unicode="&#x425;" horiz-adv-x="681" d="M0 0l105 623l-105 494h281q7 -46 30 -154q18 -82 30 -150l62 304h244l-102 -494l153 -623h-269q-48 167 -88 406q-11 -105 -31 -224l-27 -182h-283z" />
<glyph unicode="&#x426;" horiz-adv-x="805" d="M58 0v1118h291v-894h86v894h292v-894h59v-417h-201v193h-527z" />
<glyph unicode="&#x427;" horiz-adv-x="803" d="M50 584v534h291v-503q0 -66 11.5 -90.5t37.5 -24.5q65 0 65 112v506h291v-1118h-291v428q-35 -37 -92 -59.5t-115 -22.5q-104 0 -151 58t-47 180z" />
<glyph unicode="&#x428;" horiz-adv-x="1163" d="M58 0v1118h291v-894h86v894h292v-894h86v894h292v-1118h-1047z" />
<glyph unicode="&#x429;" horiz-adv-x="1186" d="M58 0v1118h291v-894h84v894h291v-894h86v894h291v-894h59v-417h-200v193h-902z" />
<glyph unicode="&#x42a;" horiz-adv-x="877" d="M17 943v175h431v-383h45q135 0 203.5 -16t103 -70t34.5 -170v-217q0 -125 -32.5 -179.5t-98.5 -68.5t-210 -14h-336v943h-140zM448 193q55 0 74.5 14t19.5 88v162q0 70 -14 85.5t-80 17.5v-367z" />
<glyph unicode="&#x42b;" horiz-adv-x="1173" d="M58 0v1118h291v-383h45q135 0 204 -16t103 -70t34 -170v-217q0 -125 -32.5 -179.5t-98.5 -68.5t-210 -14h-336zM349 193q55 0 75 14t20 88v162q0 70 -14.5 85.5t-80.5 17.5v-367zM834 0v1118h291v-1118h-291z" />
<glyph unicode="&#x42c;" horiz-adv-x="779" d="M58 0v1118h291v-383h45q135 0 204 -16t103 -70t34 -170v-217q0 -125 -32.5 -179.5t-98.5 -68.5t-210 -14h-336zM349 193q55 0 75 14t20 88v162q0 70 -14.5 85.5t-80.5 17.5v-367z" />
<glyph unicode="&#x42d;" horiz-adv-x="748" d="M41 315v88h278v-171q0 -68 48 -68q35 0 41 26.5t6 127.5v185h-161v163h161v190q0 54 -7 75t-36 21q-52 0 -52 -66v-128h-278v94q0 157 71.5 215t249.5 58q163 0 247 -70.5t84 -206.5v-544q0 -162 -79.5 -237t-244.5 -75q-175 0 -251.5 73t-76.5 250z" />
<glyph unicode="&#x42e;" horiz-adv-x="1150" d="M58 0v1118h291v-400h79q2 145 15.5 209.5t57.5 107.5t109.5 61.5t154.5 18.5q93 0 159.5 -19.5t110 -66.5t55 -121.5t11.5 -253.5v-190q0 -181 -11.5 -254t-55 -121.5t-111 -70t-158.5 -21.5q-86 0 -150 18.5t-107.5 59.5t-57 88t-18 116t-4.5 185v5h-79v-469h-291z M719 256q0 -43 8.5 -66.5t35.5 -23.5q24 0 35.5 19t11.5 90v554q0 71 -7 97t-38 26q-25 0 -35.5 -20.5t-10.5 -102.5v-573z" />
<glyph unicode="&#x42f;" horiz-adv-x="760" d="M57 0v333q0 85 9 129t43 73t107 49q-100 9 -129.5 57t-29.5 172q0 112 27.5 175t80 90.5t120.5 33.5t214 6h206v-1118h-291v503q-55 0 -71.5 -18.5t-16.5 -80.5v-404h-269zM326 778q0 -62 15.5 -81t72.5 -19v247h-14q-36 0 -55 -16t-19 -69v-62z" />
<glyph unicode="&#x430;" horiz-adv-x="712" d="M37 204v75q0 103 32.5 140.5t160.5 86.5q138 54 147.5 73t9.5 76q0 72 -10.5 93.5t-35.5 21.5q-28 0 -35 -18.5t-7 -94.5v-96h-262v61q0 107 24.5 164.5t98.5 101.5t192 44q141 0 213 -50t86.5 -122.5t14.5 -299.5v-460h-271v81q-26 -49 -66.5 -73.5t-95.5 -24.5 q-74 0 -135 41.5t-61 179.5zM299 258q0 -71 9 -91.5t37 -20.5q26 0 34 16t8 85v188q-67 -49 -77.5 -82t-10.5 -95z" />
<glyph unicode="&#x431;" horiz-adv-x="737" d="M50 332v537q0 114 75.5 185.5t198.5 71.5q51 0 146 -7t125 -7q36 0 62 9v-145q-34 -9 -54 -9q-37 0 -106 5.5t-98 5.5q-57 0 -70 -54q-4 -16 -4 -89q66 81 151 81q199 0 208 -161q4 -77 4 -169v-223q0 -155 -21 -212q-60 -159 -300 -159q-90 0 -117 2q-58 8 -99 36 q-65 45 -86 122q-15 56 -15 180zM328 217q0 -78 41 -78t41 49v468q0 61 -4 75q-7 32 -37 32t-38 -32q-3 -15 -3 -75v-439z" />
<glyph unicode="&#x432;" horiz-adv-x="726" d="M50 0v916h329q169 0 233 -56t64 -191q0 -156 -162 -177q84 -14 133 -66t49 -131v-53q0 -141 -61.5 -191.5t-265.5 -50.5h-319zM326 193q56 0 74 16t18 75v31q0 60 -16 74.5t-76 14.5v-211zM326 575q64 0 78 16t14 63q0 39 -16 54.5t-76 15.5v-149z" />
<glyph unicode="&#x433;" horiz-adv-x="487" d="M50 0v916h438v-158h-160v-758h-278z" />
<glyph unicode="&#x434;" horiz-adv-x="880" d="M19 -177v396h59q53 82 87 255t34 408v34h602v-696h59v-397h-186v177h-469v-177h-186zM369 220h155v489h-72v-9q0 -256 -83 -480z" />
<glyph unicode="&#x435;" d="M41 333v267q0 120 32.5 189t106.5 106t170 37q117 0 193.5 -44.5t107 -118t30.5 -206.5v-121h-361v-198q0 -63 9 -80.5t35 -17.5q31 0 42 23.5t11 92.5v120h264v-67q0 -85 -10.5 -130.5t-50 -97.5t-100 -78t-151.5 -26q-88 0 -155.5 25.5t-105.5 70.5t-52.5 98t-14.5 156 zM320 591h82v67q0 71 -8 91.5t-31 20.5q-29 0 -36 -17.5t-7 -94.5v-67z" />
<glyph unicode="&#x436;" horiz-adv-x="1055" d="M8 0q31 45 31 133v161q0 114 143 159q40 13 91 23q-25 1 -94 24q-69 33 -91 51q-47 41 -47 109v123q0 88 -31 133h268q32 -42 32 -108v-155q0 -93 73 -93v356h275v-356q88 0 88 93v155q0 94 31 108h269q-32 -45 -32 -133v-123q0 -68 -47 -109q-21 -18 -91 -51 q-42 -19 -93 -24q24 -4 91 -23q142 -45 142 -159v-161q0 -88 31 -133h-269q-31 42 -31 108v193q0 93 -89 93v-394h-275v394q-75 0 -75 -93v-193q0 -94 -31 -108h-269z" />
<glyph unicode="&#x437;" horiz-adv-x="713" d="M41 304v67h264v-129q0 -70 48 -70q26 0 39.5 20t13.5 103v58q0 40 -27 55.5t-112 15.5v130h21q59 0 77 3t29.5 19.5t11.5 56.5v20q0 58 -13 74t-37 16q-51 0 -51 -61v-74h-264v41q0 145 70.5 206t236.5 61q158 0 235 -59t77 -181q0 -83 -25 -123.5t-91 -61.5 q65 -21 96 -61t31 -125q0 -94 -13.5 -136.5t-53.5 -86t-109 -63t-153 -19.5q-167 0 -234 65.5t-67 238.5z" />
<glyph unicode="&#x438;" horiz-adv-x="790" d="M50 0v916h243v-491l190 491h257v-916h-243v495l-193 -495h-254z" />
<glyph unicode="&#x439;" horiz-adv-x="790" d="M50 0v916h243v-491l190 491h257v-916h-243v495l-193 -495h-254zM198 1185h117q9 -94 78 -94q71 0 79 94h117q-4 -94 -54.5 -151t-141.5 -57t-141 57.5t-54 150.5z" />
<glyph unicode="&#x43a;" d="M50 0v916h275v-356q88 0 88 93v155q0 94 31 108h268q-31 -45 -31 -133v-127q0 -67 -54 -112q-20 -16 -85 -47q-41 -20 -93 -21q24 -4 91 -23q142 -45 142 -159v-161q0 -88 31 -133h-268q-31 42 -31 108v193q0 93 -89 93v-394h-275z" />
<glyph unicode="&#x43b;" horiz-adv-x="792" d="M4 0v150q53 0 73 13t20 90v663h653v-916h-277v724h-98v-462q0 -127 -29 -181t-91.5 -67.5t-204.5 -13.5h-46z" />
<glyph unicode="&#x43c;" horiz-adv-x="965" d="M50 0v916h345l89 -506l81 506h351v-916h-239v631l-116 -631h-153l-120 631v-631h-238z" />
<glyph unicode="&#x43d;" horiz-adv-x="753" d="M50 0v916h276v-330h100v330h278v-916h-278v337h-100v-337h-276z" />
<glyph unicode="&#x43e;" d="M41 339v235q0 128 28 199.5t99.5 115t183.5 43.5q94 0 161 -28t103.5 -72.5t50 -92.5t13.5 -145v-224q0 -124 -12 -181.5t-53 -107.5t-105 -74t-146 -24q-93 0 -157 20.5t-99.5 61.5t-51 99.5t-15.5 174.5zM320 250q0 -65 8.5 -84.5t32.5 -19.5q25 0 33 17.5t8 77.5v422 q0 70 -8 88.5t-32 18.5q-25 0 -33.5 -18.5t-8.5 -88.5v-413z" />
<glyph unicode="&#x43f;" horiz-adv-x="752" d="M50 0v916h652v-916h-277v724h-99v-724h-276z" />
<glyph unicode="&#x440;" horiz-adv-x="733" d="M50 -130v1046h283l-5 -81q38 49 82.5 73t98.5 24q64 0 111.5 -35t59 -80.5t11.5 -154.5v-385q0 -125 -14.5 -178t-60.5 -84.5t-111 -31.5q-52 0 -96 24.5t-81 71.5v-209h-278zM328 270q0 -83 8.5 -103.5t36.5 -20.5q27 0 33.5 19t6.5 92v392q0 85 -6.5 103t-34.5 18 t-36 -20.5t-8 -100.5v-379z" />
<glyph unicode="&#x441;" horiz-adv-x="698" d="M41 344v260q0 116 23.5 175.5t100.5 106t186 46.5t186.5 -46t103 -116.5t25.5 -199.5h-263v106q0 55 -9 74.5t-33 19.5t-32.5 -17t-8.5 -77v-432q0 -49 12.5 -73.5t36.5 -24.5q28 0 38 25.5t10 96.5v109h249q-1 -110 -8 -165t-46 -112.5t-102 -87t-155 -29.5 q-118 0 -187 40.5t-98 113.5t-29 207z" />
<glyph unicode="&#x442;" horiz-adv-x="607" d="M4 724v192h598v-192h-160v-724h-278v724h-160z" />
<glyph unicode="&#x443;" horiz-adv-x="633" d="M-8 916h253l91 -618l44 618h253l-80 -663q-18 -157 -31 -214.5t-42.5 -94.5t-82.5 -54.5t-169 -17.5h-169v146q65 0 83.5 6.5t18.5 29.5q0 11 -17 96z" />
<glyph unicode="&#x444;" horiz-adv-x="1086" d="M41 250v386q0 96 11.5 153.5t53 92.5t126.5 35q110 0 172 -83v224h277v-223q67 83 181 83q74 0 117.5 -29t54 -79.5t10.5 -146.5v-386q0 -96 -11.5 -153.5t-53 -92.5t-125.5 -35q-111 0 -173 83v-210h-277v209q-67 -84 -180 -84q-75 0 -118.5 29t-54 80t-10.5 147z M319 263q0 -67 1 -81.5t10 -26.5t30 -12q24 0 34 17t10 60v477q0 70 -45 70q-20 0 -30 -13.5t-10 -55.5v-435zM681 216q0 -70 46 -70q19 0 29 13.5t10 55.5v435q0 67 -0.5 81.5t-9.5 26.5t-31 12q-23 0 -33.5 -17t-10.5 -60v-477z" />
<glyph unicode="&#x445;" horiz-adv-x="612" d="M0 0l120 478l-120 438h233q56 -281 60 -318q40 233 61 318h248l-111 -438l134 -478h-271q-40 181 -61 311q-27 -163 -60 -311h-233z" />
<glyph unicode="&#x446;" horiz-adv-x="781" d="M50 0v916h276v-723h99v723h277v-723h60v-370h-187v177h-525z" />
<glyph unicode="&#x447;" horiz-adv-x="727" d="M41 486v430h278v-443q0 -73 7 -98.5t37 -25.5q25 0 34.5 23t9.5 92v452h278v-916h-278v252q-52 -50 -167 -50q-79 0 -128 28.5t-60 82t-11 173.5z" />
<glyph unicode="&#x448;" horiz-adv-x="1131" d="M50 0v916h278v-723h98v723h279v-723h99v723h279v-916h-1033z" />
<glyph unicode="&#x449;" horiz-adv-x="1161" d="M50 0v916h278v-723h98v723h279v-723h99v723h279v-723h59v-370h-187v177h-905z" />
<glyph unicode="&#x44a;" horiz-adv-x="837" d="M7 724v192h417v-305h45q133 0 198.5 -16t97 -70t31.5 -170v-93q0 -126 -29.5 -180.5t-92 -68t-205.5 -13.5h-322v724h-140zM424 193q55 0 75 14t20 88v37q0 71 -14.5 86t-80.5 17v-242z" />
<glyph unicode="&#x44b;" horiz-adv-x="1108" d="M50 0v916h276v-305h46q133 0 198.5 -16t96.5 -70t31 -170v-93q0 -126 -29 -180.5t-92 -68t-205 -13.5h-322zM326 193q56 0 75.5 14t19.5 88v37q0 71 -14 86t-81 17v-242zM783 0v916h277v-916h-277z" />
<glyph unicode="&#x44c;" horiz-adv-x="737" d="M50 0v916h276v-305h46q133 0 198.5 -16t96.5 -70t31 -170v-93q0 -126 -29 -180.5t-92 -68t-205 -13.5h-322zM326 193q56 0 75.5 14t19.5 88v37q0 71 -14 86t-81 17v-242z" />
<glyph unicode="&#x44d;" horiz-adv-x="706" d="M39 314v39h263v-113q0 -54 13 -75t41 -21q21 0 32.5 16t11.5 82v176h-126v124h126v159q0 40 -10 53t-33 13q-26 0 -32.5 -23.5t-6.5 -87.5v-58h-277v41q0 90 39 154.5t107 92.5t184 28q147 0 220 -68t73 -248v-267q0 -88 -10 -141.5t-48.5 -101t-101 -69.5t-153.5 -22 q-92 0 -151 19t-100 67t-51 99.5t-10 131.5z" />
<glyph unicode="&#x44e;" horiz-adv-x="1093" d="M50 0v916h279v-355h84v12q0 82 9.5 141t48.5 108.5t102.5 74t150.5 24.5q91 0 159.5 -24.5t109.5 -72.5t50 -96t9 -135v-222q0 -126 -13 -186.5t-57.5 -106t-108 -62.5t-184.5 -17q-60 0 -100 6.5t-80 34.5t-62 70t-28 93.5t-6 135.5v30h-85v-369h-278zM691 225 q0 -79 41 -79q18 0 29.5 14t11.5 35v468q0 64 -6.5 85.5t-34.5 21.5t-34.5 -22.5t-6.5 -84.5v-438z" />
<glyph unicode="&#x44f;" d="M46 0v215q0 82 8.5 118t41 57t109.5 41q-100 9 -129.5 57t-29.5 172q0 136 79 196t341 60h207v-916h-278v360q-53 0 -73.5 -22.5t-20.5 -85.5v-252h-255zM301 626q0 -66 20.5 -86.5t73.5 -20.5v219h-28q-30 0 -48 -18t-18 -82v-12z" />
<glyph unicode="&#x451;" d="M41 333v267q0 120 32.5 189t106.5 106t170 37q117 0 193.5 -44.5t107 -118t30.5 -206.5v-121h-361v-198q0 -63 9 -80.5t35 -17.5q31 0 42 23.5t11 92.5v120h264v-67q0 -85 -10.5 -130.5t-50 -97.5t-100 -78t-151.5 -26q-88 0 -155.5 25.5t-105.5 70.5t-52.5 98t-14.5 156 zM119 977v179h180v-179h-180zM320 591h82v67q0 71 -8 91.5t-31 20.5q-29 0 -36 -17.5t-7 -94.5v-67zM421 977v179h180v-179h-180z" />
<glyph unicode="&#x452;" horiz-adv-x="756" d="M6 890v144h63v85h279v-85h149v-144h-149v-132q55 49 166 49q80 0 129 -28t59.5 -82.5t10.5 -173.5v-471q0 -135 -66 -198t-250 -63h-17v192q34 0 44.5 28t10.5 75v449q0 74 -6.5 99.5t-37.5 25.5q-25 0 -34 -23t-9 -91v-546h-279v890h-63z" />
<glyph unicode="&#x453;" horiz-adv-x="487" d="M50 8v916h438v-158h-160v-758h-278zM113 979l122 187h245l-227 -187h-140z" />
<glyph unicode="&#x454;" horiz-adv-x="706" d="M42 325v283q0 74 11.5 129.5t46.5 100.5t93 65.5t143 20.5q182 0 256 -75.5t74 -199.5v-41h-278v58q0 65 -6.5 88t-32.5 23q-22 0 -32.5 -13t-10.5 -53v-169h127v-129h-127v-177q0 -66 11.5 -81.5t33.5 -15.5q28 0 40.5 21t12.5 75v113h263v-40q0 -81 -10.5 -133 t-52.5 -99.5t-100 -65.5t-148 -18q-92 0 -155.5 22.5t-101 70t-47.5 101t-10 139.5z" />
<glyph unicode="&#x455;" horiz-adv-x="665" d="M29 662q0 109 29 161.5t98.5 80.5t160.5 28t155 -23t98 -61t41.5 -70.5t7.5 -101.5v-53h-247v50q0 63 -7.5 80t-36.5 17q-23 0 -34.5 -15.5t-11.5 -46.5q0 -42 5.5 -61.5t35 -43t120.5 -68.5q121 -60 159 -112t38 -153q0 -111 -29 -168t-97 -88t-163 -31 q-107 0 -182.5 33.5t-103.5 90t-28 170.5v45h247v-58q0 -74 9 -96t37 -22q29 0 41 14.5t12 62.5q0 65 -15 82q-16 17 -162 98q-123 69 -150 125t-27 134z" />
<glyph unicode="&#x456;" horiz-adv-x="387" d="M50 0v916h287v-916h-287zM50 972v145h287v-145h-287z" />
<glyph unicode="&#x457;" horiz-adv-x="387" d="M-46 978v179h180v-179h-180zM50 0v916h287v-916h-287zM256 978v179h180v-179h-180z" />
<glyph unicode="&#x458;" horiz-adv-x="395" d="M-4 18q50 0 56 11t6 138v749h287v-725q0 -128 -5 -173t-31.5 -79t-71 -50.5t-133.5 -16.5h-108v146zM58 972v145h287v-145h-287z" />
<glyph unicode="&#x459;" horiz-adv-x="1164" d="M4 0v193q53 0 73 13t20 89v621h653v-305h46q133 0 198.5 -16t96.5 -70t31 -170v-93q0 -126 -29.5 -180.5t-92 -68t-204.5 -13.5h-323v724h-98v-462q0 -127 -29 -181t-91.5 -67.5t-204.5 -13.5h-46zM750 193q55 0 75 14t20 88v37q0 71 -14.5 86t-80.5 17v-242z" />
<glyph unicode="&#x45a;" horiz-adv-x="1108" d="M41 0v916h277v-330h99v330h277v-305h45q133 0 198.5 -16t96.5 -70t31 -170v-93q0 -126 -29 -180.5t-91.5 -68t-205.5 -13.5h-322v342h-99v-342h-277zM694 193q55 0 75 14t20 88v37q0 71 -14.5 86t-80.5 17v-242z" />
<glyph unicode="&#x45b;" horiz-adv-x="756" d="M6 890v144h63v85h279v-85h149v-144h-149v-132q52 49 166 49q80 0 129 -28t59.5 -82.5t10.5 -173.5v-523h-278v535q0 74 -6.5 99.5t-37.5 25.5q-25 0 -34 -23t-9 -91v-546h-279v890h-63z" />
<glyph unicode="&#x45c;" d="M50 0v916h275v-356q88 0 88 93v155q0 94 31 108h268q-31 -45 -31 -133v-127q0 -67 -54 -112q-20 -16 -85 -47q-41 -20 -93 -21q24 -4 91 -23q142 -45 142 -159v-161q0 -88 31 -133h-268q-31 42 -31 108v193q0 93 -89 93v-394h-275zM234 977l122 187h245l-227 -187h-140z " />
<glyph unicode="&#x45e;" horiz-adv-x="633" d="M-8 916h253l91 -618l44 618h253l-80 -663q-18 -157 -31 -214.5t-42.5 -94.5t-82.5 -54.5t-169 -17.5h-169v146q65 0 83.5 6.5t18.5 29.5q0 11 -17 96zM127 1185h117q9 -94 78 -94q71 0 79 94h117q-4 -94 -54.5 -151t-141.5 -57t-141 57.5t-54 150.5z" />
<glyph unicode="&#x45f;" horiz-adv-x="736" d="M41 0v916h277v-723h99v723h277v-916h-233v-177h-187v177h-233z" />
<glyph unicode="&#x490;" horiz-adv-x="607" d="M58 0v1118h330v85h201v-309h-240v-894h-291z" />
<glyph unicode="&#x491;" horiz-adv-x="570" d="M50 0v916h332v131h186v-323h-240v-724h-278z" />
<glyph unicode="&#x2000;" horiz-adv-x="712" />
<glyph unicode="&#x2001;" horiz-adv-x="1425" />
<glyph unicode="&#x2002;" horiz-adv-x="712" />
<glyph unicode="&#x2003;" horiz-adv-x="1425" />
<glyph unicode="&#x2004;" horiz-adv-x="475" />
<glyph unicode="&#x2005;" horiz-adv-x="356" />
<glyph unicode="&#x2006;" horiz-adv-x="237" />
<glyph unicode="&#x2007;" horiz-adv-x="237" />
<glyph unicode="&#x2008;" horiz-adv-x="178" />
<glyph unicode="&#x2009;" horiz-adv-x="285" />
<glyph unicode="&#x200a;" horiz-adv-x="79" />
<glyph unicode="&#x2010;" horiz-adv-x="416" d="M25 362v192h366v-192h-366z" />
<glyph unicode="&#x2011;" horiz-adv-x="416" d="M25 362v192h366v-192h-366z" />
<glyph unicode="&#x2012;" horiz-adv-x="416" d="M25 362v192h366v-192h-366z" />
<glyph unicode="&#x2013;" horiz-adv-x="706" d="M-8 372v172h723v-172h-723z" />
<glyph unicode="&#x2014;" horiz-adv-x="1413" d="M-8 372v172h1429v-172h-1429z" />
<glyph unicode="&#x2018;" horiz-adv-x="237" d="M25 756v100q0 78 19 128.5t65 85.5t103 47v-80q-41 -23 -46 -63h46v-218h-187z" />
<glyph unicode="&#x2019;" horiz-adv-x="237" d="M25 756v80q41 23 47 62h-47v219h187v-100q0 -78 -18.5 -128.5t-64.5 -85.5t-104 -47z" />
<glyph unicode="&#x201a;" horiz-adv-x="237" d="M25 0v219h187v-100q0 -79 -18.5 -129.5t-64.5 -85.5t-104 -47v80q41 24 47 63h-47z" />
<glyph unicode="&#x201c;" horiz-adv-x="487" d="M25 756v100q0 78 19 128.5t65 85.5t103 47v-80q-41 -23 -46 -63h46v-218h-187zM275 756v100q0 78 19 128.5t64.5 85.5t103.5 47v-80q-41 -23 -47 -63h47v-218h-187z" />
<glyph unicode="&#x201d;" horiz-adv-x="487" d="M25 756v80q41 23 47 62h-47v219h187v-100q0 -78 -18.5 -128.5t-64.5 -85.5t-104 -47zM275 756v80q40 23 46 62h-46v219h187v-100q0 -78 -19 -128.5t-64.5 -85.5t-103.5 -47z" />
<glyph unicode="&#x201e;" horiz-adv-x="487" d="M25 0v219h187v-100q0 -79 -18.5 -129.5t-64.5 -85.5t-104 -47v80q41 24 47 63h-47zM275 0v219h187v-100q0 -79 -19 -129.5t-64.5 -85.5t-103.5 -47v80q40 24 46 63h-46z" />
<glyph unicode="&#x2020;" horiz-adv-x="767" d="M25 531v263h205v323h307v-323h205v-263h-205v-661h-307v661h-205z" />
<glyph unicode="&#x2021;" horiz-adv-x="767" d="M25 128v263h205v205h-205v262h205v259h307v-259h205v-262h-205v-205h205v-263h-205v-258h-307v258h-205z" />
<glyph unicode="&#x2022;" horiz-adv-x="491" d="M41 559q0 83 60 143t144 60q90 0 147 -62t57 -136q0 -91 -60.5 -150t-142.5 -59q-85 0 -145 59.5t-60 144.5z" />
<glyph unicode="&#x2026;" horiz-adv-x="781" d="M25 0v228h210v-228h-210zM286 0v228h210v-228h-210zM546 0v228h211v-228h-211z" />
<glyph unicode="&#x202f;" horiz-adv-x="285" />
<glyph unicode="&#x2030;" horiz-adv-x="1448" d="M25 726v201q0 82 17 122t65 64.5t119 24.5q79 0 128 -27t65.5 -65.5t16.5 -118.5v-192q0 -75 -14 -113t-60.5 -65.5t-123.5 -27.5q-88 0 -134.5 26.5t-62.5 63.5t-16 107zM201 694q0 -48 4.5 -57.5t25.5 -9.5q18 0 23 11t5 51v287q0 44 -4.5 54.5t-24.5 10.5 q-18 0 -23.5 -11.5t-5.5 -53.5v-282zM218 -21l438 1159h105l-437 -1159h-106zM543 186v201q0 82 17 122t65 65t120 25q79 0 128 -27.5t65 -66.5t16 -118v-192q0 -75 -14 -113t-60.5 -66t-123.5 -28q-87 0 -134 27t-63 64.5t-16 106.5zM720 154q0 -48 4.5 -57.5t24.5 -9.5 q19 0 24 10.5t5 52.5v285q0 45 -4.5 55.5t-24.5 10.5q-19 0 -24 -11t-5 -55v-281zM1012 186v201q0 82 17 122t65.5 65t119.5 25q79 0 127.5 -27.5t65 -66.5t16.5 -118v-192q0 -75 -14 -113t-60.5 -66t-123.5 -28q-87 0 -133.5 27t-63 64.5t-16.5 106.5zM1189 154 q0 -48 5 -57.5t25 -9.5q17 0 22.5 10.5t5.5 52.5v285q0 45 -4.5 55.5t-24.5 10.5q-19 0 -24 -11t-5 -55v-281z" />
<glyph unicode="&#x2039;" horiz-adv-x="279" d="M25 480l60 387h169l-60 -387l60 -408h-169z" />
<glyph unicode="&#x203a;" horiz-adv-x="279" d="M25 72l60 408l-60 387h169l60 -387l-60 -408h-169z" />
<glyph unicode="&#x2044;" horiz-adv-x="176" d="M-183 -21l438 1159h104l-436 -1159h-106z" />
<glyph unicode="&#x205f;" horiz-adv-x="356" />
<glyph unicode="&#x20ac;" horiz-adv-x="750" d="M-17 422v119h67v55h-67v119h67v20q0 107 9 170.5t51 118t114.5 86t162.5 31.5t162.5 -32.5t113.5 -104.5t41 -234v-37h-258v91q-2 71 -4.5 89.5t-14.5 28t-39 9.5q-30 0 -48 -14t-21.5 -37.5t-3.5 -83.5v-101h79v-119h-79v-55h79v-119h-79v-125q0 -59 4.5 -80.5t21 -36 t41.5 -14.5q20 0 37.5 12t22 35t4.5 93v107h258v-44q0 -155 -29 -229t-107 -119t-189 -45q-89 0 -160 31.5t-109 84t-49 114.5t-11 187v29h-67z" />
<glyph unicode="&#x2122;" horiz-adv-x="1106" d="M8 1019v98h459v-98h-170v-467h-114v467h-175zM509 552v565h179l103 -389l103 389h179v-565h-109v451l-122 -451h-104l-121 451v-451h-108z" />
<glyph unicode="&#x2202;" horiz-adv-x="692" d="M43 202q0 160 130 301t275 141q116 0 163 -103q5 53 5 88q0 75 -29 122t-69.5 73.5t-117.5 26.5q-50 0 -89 -14.5t-67 -42.5h-29q36 97 96 146t144 49q69 0 114.5 -32t67 -84.5t21.5 -159.5q0 -237 -65.5 -404t-144 -246t-187.5 -79q-107 0 -162.5 63.5t-55.5 154.5z M219 146q0 -65 20 -90.5t63 -25.5q93 0 179 137.5t119 309.5q-44 132 -148 132q-59 0 -112.5 -62t-87 -182.5t-33.5 -218.5z" />
<glyph unicode="&#x2206;" horiz-adv-x="868" d="M20 0l433 957l395 -957h-828zM106 57h579l-275 667z" />
<glyph unicode="&#x220f;" horiz-adv-x="1162" d="M31 -31h24q64 0 88.5 26t24.5 81v920q0 59 -26.5 83t-86.5 24h-24v26h1100v-26h-24q-60 0 -86 -24.5t-26 -82.5v-920q0 -59 27 -83t85 -24h24v-26h-412v26h24q64 0 88 26t24 81v999h-549v-999q0 -59 27 -83t85 -24h25v-26h-412v26z" />
<glyph unicode="&#x2211;" horiz-adv-x="1001" d="M26 -32l462 573l-462 563v26h882l19 -232h-28q-19 176 -172 176h-510l387 -474l-434 -536h565q61 0 124.5 27t89.5 143l27 -6l-44 -285h-906v25z" />
<glyph unicode="&#x221a;" horiz-adv-x="775" d="M58 632l208 104l279 -568l179 1122h52l-216 -1344l-342 705l-137 -63z" />
<glyph unicode="&#x221e;" horiz-adv-x="1007" d="M37 463q0 108 61 180.5t150 72.5q54 0 102 -29t101 -129q48 117 108.5 154t146.5 37q67 0 124 -30t98.5 -96t41.5 -161q0 -85 -33.5 -149.5t-91.5 -102.5t-116 -38q-54 0 -106.5 34t-125.5 163q-39 -80 -95 -120.5t-129 -40.5q-98 0 -167 70.5t-69 184.5zM75 464 q0 -95 50 -148.5t108 -53.5q44 0 92 35.5t98 184.5l8 23q-31 74 -77 111t-108 37q-69 0 -120 -50t-51 -139zM517 418q47 -101 98 -141t117 -40q89 0 144 64t55 161q0 100 -60 167t-135 67q-58 0 -103 -40.5t-116 -237.5z" />
<glyph unicode="&#x222b;" horiz-adv-x="387" d="M0 -68q0 31 18 49.5t44 18.5q28 0 48 -23q20 -21 34 -21q13 0 19.5 10.5t6.5 31.5q0 29 -6 83q-26 218 -26 537l8 307q6 237 52 298.5t102 61.5q37 0 61.5 -23.5t24.5 -49.5q0 -31 -17.5 -51.5t-45.5 -20.5q-24 0 -53 25q-15 14 -27 14q-28 0 -28 -44q0 -29 6 -101 q26 -283 26 -459q0 -46 -8.5 -324t-53 -340.5t-104.5 -62.5q-33 0 -57 22.5t-24 61.5z" />
<glyph unicode="&#x2248;" horiz-adv-x="741" d="M39 297v192q100 89 200 89q59 0 160 -49q81 -39 116 -39q68 0 187 112v-191l-9 -7q-102 -83 -182 -83q-37 0 -70.5 9.5t-110.5 46.5q-66 33 -99 33t-74.5 -20t-117.5 -93zM39 563v192q100 90 200 90q59 0 160 -49q81 -40 116 -40q68 0 187 112v-190q-107 -91 -191 -91 q-37 0 -70.5 10t-110.5 47q-66 32 -99 32q-39 0 -78.5 -22.5t-113.5 -90.5z" />
<glyph unicode="&#x2260;" horiz-adv-x="753" d="M45 342v169h235l38 95h-273v168h338l114 289h154l-112 -289h170v-168h-236l-37 -95h273v-169h-338l-115 -289h-156l115 289h-170z" />
<glyph unicode="&#x2264;" horiz-adv-x="753" d="M44 112v168h665v-168h-665zM45 612v140l664 277v-182l-410 -165l410 -164v-183z" />
<glyph unicode="&#x2265;" horiz-adv-x="753" d="M44 112v168h665v-168h-665zM45 335v183l410 164l-410 165v182l664 -276v-140z" />
<glyph unicode="&#x25ca;" horiz-adv-x="698" d="M32 489l270 492h76l289 -492l-289 -489h-76zM106 489l235 -424l248 424l-248 425z" />
<glyph unicode="&#x25fc;" horiz-adv-x="914" d="M0 0v914h914v-914h-914z" />
<glyph unicode="&#xfb01;" horiz-adv-x="792" d="M3 749v145h57q0 90 6 120.5t30.5 54t69 36t137.5 12.5h102v-141q-86 0 -101.5 -8t-15.5 -45v-29h117v-145h-66v-749h-279v749h-57zM455 0v916h287v-916h-287zM455 972v145h287v-145h-287z" />
<glyph unicode="&#xfb02;" horiz-adv-x="790" d="M3 749v145h57q0 90 6 120.5t30.5 54t69 36t137.5 12.5h102v-141q-86 0 -101.5 -8t-15.5 -45v-29h117v-145h-66v-749h-279v749h-57zM453 0v1117h287v-1117h-287z" />
</font>
</defs>
</svg>
